<svg width="285" height="297" viewBox="0 0 285 297" fill="none" xmlns="http://www.w3.org/2000/svg">
<g filter="url(#filter0_dd_341_19098)">
<g clip-path="url(#clip0_341_19098)">
<mask id="path-2-inside-1_341_19098" fill="white">
<path d="M7.16663 15.3889H265.034V52.3529H7.16663V15.3889Z"/>
</mask>
<path d="M7.16663 15.3889H265.034V52.3529H7.16663V15.3889Z" fill="white"/>
<path d="M265.034 51.521H7.16663V53.1847H265.034V51.521Z" fill="#DADEE3" mask="url(#path-2-inside-1_341_19098)"/>
<path d="M113.143 38.3708H112.025V29.951H113.143L116.043 37.0316L118.942 29.951H120.084V38.3708H118.966V35.0402C118.966 33.468 118.977 32.8974 119.035 32.3035L116.578 38.3708H115.507L113.061 32.3268C113.119 32.7344 113.143 33.5961 113.143 34.7723V38.3708ZM121.31 40.9212V40.0245H122.044C122.568 40.0245 122.987 39.943 123.255 39.221L123.453 38.6736L121.159 32.6761H122.312L123.966 37.2645L125.654 32.6761H126.784L124.094 39.6519C123.709 40.6301 123.139 41.0377 122.265 41.0377C121.904 41.0377 121.602 40.9911 121.31 40.9212ZM134.301 35.3663H132.17V38.3708H131.029V29.951H134.301C135.955 29.951 137.014 31.0341 137.014 32.6528C137.014 34.225 135.943 35.3663 134.301 35.3663ZM134.103 30.9759H132.17V34.3415H134.056C135.186 34.3415 135.815 33.6777 135.815 32.6412C135.815 31.5814 135.174 30.9759 134.103 30.9759ZM137.487 35.5177C137.487 33.7592 138.744 32.5247 140.456 32.5247C142.156 32.5247 143.414 33.7592 143.414 35.5177C143.414 37.2762 142.156 38.5106 140.456 38.5106C138.744 38.5106 137.487 37.2762 137.487 35.5177ZM138.593 35.5177C138.593 36.7055 139.35 37.5324 140.456 37.5324C141.551 37.5324 142.319 36.7055 142.319 35.5177C142.319 34.3298 141.551 33.503 140.456 33.503C139.35 33.503 138.593 34.3298 138.593 35.5177ZM145.744 38.3708H144.649V29.7997H145.744V38.3708ZM147.891 31.3252C147.495 31.3252 147.169 30.9992 147.169 30.6032C147.169 30.1956 147.495 29.8812 147.891 29.8812C148.287 29.8812 148.613 30.1956 148.613 30.6032C148.613 30.9992 148.287 31.3252 147.891 31.3252ZM147.355 38.3708V32.6761H148.45V38.3708H147.355ZM149.667 35.5293C149.667 33.7475 150.796 32.5131 152.462 32.5131C153.894 32.5131 154.896 33.3283 155.094 34.5977H153.999C153.813 33.8756 153.23 33.4913 152.497 33.4913C151.46 33.4913 150.75 34.2832 150.75 35.5177C150.75 36.7405 151.414 37.5324 152.45 37.5324C153.23 37.5324 153.813 37.1248 154.01 36.4493H155.105C154.884 37.6838 153.824 38.5106 152.45 38.5106C150.773 38.5106 149.667 37.3227 149.667 35.5293ZM155.599 40.9212V40.0245H156.333C156.857 40.0245 157.276 39.943 157.544 39.221L157.742 38.6736L155.448 32.6761H156.601L158.254 37.2645L159.943 32.6761H161.073L158.382 39.6519C157.998 40.6301 157.427 41.0377 156.554 41.0377C156.193 41.0377 155.89 40.9911 155.599 40.9212Z" fill="#414956"/>
<rect width="257.868" height="229.222" transform="translate(7.16663 52.3529)" fill="white"/>
<path d="M57.0765 85.6263C57.0765 94.8144 49.628 102.263 40.4399 102.263C31.2517 102.263 23.8032 94.8144 23.8032 85.6263C23.8032 76.4381 31.2517 68.9896 40.4399 68.9896C49.628 68.9896 57.0765 76.4381 57.0765 85.6263Z" fill="#F0F3F9"/>
<path fill-rule="evenodd" clip-rule="evenodd" d="M40.4398 76.7302C40.7476 76.7302 41.0288 76.905 41.165 77.181L43.476 81.8628L48.644 82.6182C48.9486 82.6627 49.2014 82.8762 49.2964 83.1689C49.3913 83.4617 49.3118 83.783 49.0914 83.9977L45.3524 87.6394L46.2348 92.7842C46.2869 93.0876 46.1621 93.3943 45.9131 93.5752C45.664 93.7561 45.3338 93.78 45.0613 93.6367L40.4398 91.2063L35.8183 93.6367C35.5459 93.78 35.2157 93.7561 34.9666 93.5752C34.7175 93.3943 34.5928 93.0876 34.6448 92.7842L35.5272 87.6394L31.7883 83.9977C31.5678 83.783 31.4883 83.4617 31.5833 83.1689C31.6782 82.8762 31.9311 82.6627 32.2356 82.6182L37.4037 81.8628L39.7146 77.181C39.8509 76.905 40.132 76.7302 40.4398 76.7302ZM40.4398 79.3661L38.6661 82.9595C38.5484 83.198 38.321 83.3633 38.0578 83.4018L34.09 83.9817L36.9605 86.7775C37.1512 86.9633 37.2383 87.2311 37.1933 87.4936L36.516 91.4423L40.0634 89.5768C40.2991 89.4528 40.5806 89.4528 40.8162 89.5768L44.3636 91.4423L43.6864 87.4936C43.6414 87.2311 43.7284 86.9633 43.9192 86.7775L46.7896 83.9817L42.8218 83.4018C42.5587 83.3633 42.3313 83.198 42.2136 82.9595L40.4398 79.3661Z" fill="#68C78E"/>
<path d="M73.8864 85.2483C71.0515 85.2483 69.2149 83.2786 69.2149 80.2307C69.2149 77.2095 71.1181 75.1998 73.9663 75.1998C76.2688 75.1998 77.9857 76.544 78.3184 78.6336H76.5217C76.1889 77.5023 75.2174 76.8369 73.9264 76.8369C72.1296 76.8369 70.9983 78.1412 70.9983 80.2174C70.9983 82.2804 72.1429 83.6113 73.9264 83.6113C75.244 83.6113 76.2555 82.9192 76.5749 81.8412H78.3451C77.9724 83.8908 76.1889 85.2483 73.8864 85.2483ZM79.2473 81.7879C79.2473 79.7383 80.7246 78.3275 82.7609 78.3275C84.7973 78.3275 86.2746 79.7383 86.2746 81.7879C86.2746 83.8375 84.7973 85.2483 82.7609 85.2483C80.7246 85.2483 79.2473 83.8375 79.2473 81.7879ZM80.871 81.7879C80.871 82.9858 81.643 83.7976 82.7609 83.7976C83.8789 83.7976 84.6509 82.9858 84.6509 81.7879C84.6509 80.5901 83.8789 79.7782 82.7609 79.7782C81.643 79.7782 80.871 80.5901 80.871 81.7879ZM89.1 85.0886L86.4914 78.5138H88.2216L89.3662 81.535C89.6457 82.3203 89.872 82.9991 89.9518 83.3584C90.045 82.9458 90.2845 82.2537 90.564 81.535L91.7619 78.5138H93.4388L90.6971 85.0886H89.1ZM96.9887 85.2616C95.0322 85.2616 93.6614 83.8375 93.6614 81.8012C93.6614 79.7383 95.0056 78.3142 96.9355 78.3142C98.9052 78.3142 100.156 79.6318 100.156 81.6814V82.1739L95.2052 82.1872C95.325 83.3451 95.9373 83.9307 97.0153 83.9307C97.907 83.9307 98.4926 83.5847 98.679 82.9591H100.183C99.9034 84.3965 98.7056 85.2616 96.9887 85.2616ZM96.9488 79.6451C95.9905 79.6451 95.4049 80.1642 95.2452 81.1491H98.5459C98.5459 80.244 97.9203 79.6451 96.9488 79.6451ZM105.582 78.4872V79.9912H104.983C103.812 79.9912 103.08 80.6167 103.08 81.8944V85.0886H101.456V78.5271H102.986L103.08 79.4854C103.359 78.8332 103.985 78.394 104.863 78.394C105.089 78.394 105.316 78.4207 105.582 78.4872ZM108.377 85.2616C106.98 85.2616 106.128 84.4498 106.128 83.212C106.128 82.0009 107.006 81.2422 108.564 81.1224L110.533 80.976V80.8296C110.533 79.9379 110.001 79.5786 109.176 79.5786C108.218 79.5786 107.685 79.9778 107.685 80.6699H106.301C106.301 79.2458 107.472 78.3142 109.256 78.3142C111.026 78.3142 112.117 79.2725 112.117 81.0958V85.0886H110.693L110.573 84.117C110.294 84.7958 109.402 85.2616 108.377 85.2616ZM108.91 84.0372C109.908 84.0372 110.547 83.4383 110.547 82.4268V82.0807L109.176 82.1872C108.164 82.2804 107.778 82.6131 107.778 83.1455C107.778 83.7444 108.178 84.0372 108.91 84.0372ZM113.34 81.6548C113.34 79.7383 114.591 78.3009 116.467 78.3009C117.452 78.3009 118.224 78.7135 118.61 79.4189L118.703 78.5138H120.207V84.7559C120.207 86.9519 118.89 88.3228 116.76 88.3228C114.87 88.3228 113.579 87.2447 113.38 85.4879H115.003C115.11 86.3397 115.762 86.8455 116.76 86.8455C117.878 86.8455 118.597 86.1401 118.597 85.0487V83.9573C118.184 84.5696 117.372 84.9555 116.427 84.9555C114.564 84.9555 113.34 83.5581 113.34 81.6548ZM114.977 81.6149C114.977 82.7196 115.682 83.5447 116.747 83.5447C117.865 83.5447 118.557 82.7595 118.557 81.6149C118.557 80.4969 117.878 79.725 116.747 79.725C115.669 79.725 114.977 80.5368 114.977 81.6149ZM124.829 85.2616C122.873 85.2616 121.502 83.8375 121.502 81.8012C121.502 79.7383 122.846 78.3142 124.776 78.3142C126.746 78.3142 127.997 79.6318 127.997 81.6814V82.1739L123.046 82.1872C123.165 83.3451 123.778 83.9307 124.856 83.9307C125.747 83.9307 126.333 83.5847 126.519 82.9591H128.023C127.744 84.3965 126.546 85.2616 124.829 85.2616ZM124.789 79.6451C123.831 79.6451 123.245 80.1642 123.086 81.1491H126.386C126.386 80.244 125.761 79.6451 124.789 79.6451ZM132.564 78.0746C132.564 76.371 133.975 75.1865 136.024 75.1865C137.994 75.1865 139.245 76.2779 139.299 78.0347H137.595C137.555 77.1962 136.956 76.7038 135.998 76.7038C134.946 76.7038 134.268 77.2095 134.268 78.0214C134.268 78.7135 134.64 79.0994 135.452 79.2858L136.983 79.6185C138.646 79.9778 139.458 80.8296 139.458 82.2804C139.458 84.0904 138.048 85.2616 135.905 85.2616C133.828 85.2616 132.471 84.157 132.431 82.4135H134.135C134.148 83.2386 134.813 83.7311 135.905 83.7311C137.036 83.7311 137.755 83.2386 137.755 82.4268C137.755 81.7746 137.422 81.3886 136.623 81.2156L135.08 80.8696C133.429 80.5102 132.564 79.5653 132.564 78.0746ZM145.219 78.5138H146.842V85.0886H145.338L145.219 84.2102C144.819 84.8357 143.967 85.2616 143.089 85.2616C141.572 85.2616 140.68 84.2368 140.68 82.6264V78.5138H142.304V82.0541C142.304 83.3052 142.796 83.8109 143.701 83.8109C144.726 83.8109 145.219 83.212 145.219 81.9609V78.5138ZM150.143 85.0886H148.519V78.5138H150.01L150.143 79.2858C150.476 78.7401 151.141 78.3142 152.086 78.3142C153.084 78.3142 153.777 78.8066 154.123 79.5653C154.455 78.8066 155.227 78.3142 156.225 78.3142C157.823 78.3142 158.701 79.2725 158.701 80.7897V85.0886H157.091V81.2156C157.091 80.2707 156.585 79.7782 155.813 79.7782C155.028 79.7782 154.429 80.284 154.429 81.362V85.0886H152.805V81.2023C152.805 80.284 152.312 79.7915 151.541 79.7915C150.769 79.7915 150.143 80.2973 150.143 81.362V85.0886ZM161.919 85.0886H160.295V78.5138H161.786L161.919 79.2858C162.251 78.7401 162.917 78.3142 163.862 78.3142C164.86 78.3142 165.552 78.8066 165.898 79.5653C166.231 78.8066 167.003 78.3142 168.001 78.3142C169.598 78.3142 170.477 79.2725 170.477 80.7897V85.0886H168.866V81.2156C168.866 80.2707 168.36 79.7782 167.588 79.7782C166.803 79.7782 166.204 80.284 166.204 81.362V85.0886H164.581V81.2023C164.581 80.284 164.088 79.7915 163.316 79.7915C162.544 79.7915 161.919 80.2973 161.919 81.362V85.0886ZM174.027 85.2616C172.63 85.2616 171.778 84.4498 171.778 83.212C171.778 82.0009 172.656 81.2422 174.213 81.1224L176.183 80.976V80.8296C176.183 79.9379 175.651 79.5786 174.826 79.5786C173.867 79.5786 173.335 79.9778 173.335 80.6699H171.951C171.951 79.2458 173.122 78.3142 174.905 78.3142C176.676 78.3142 177.767 79.2725 177.767 81.0958V85.0886H176.343L176.223 84.117C175.944 84.7958 175.052 85.2616 174.027 85.2616ZM174.559 84.0372C175.558 84.0372 176.196 83.4383 176.196 82.4268V82.0807L174.826 82.1872C173.814 82.2804 173.428 82.6131 173.428 83.1455C173.428 83.7444 173.827 84.0372 174.559 84.0372ZM183.488 78.4872V79.9912H182.889C181.718 79.9912 180.986 80.6167 180.986 81.8944V85.0886H179.362V78.5271H180.893L180.986 79.4854C181.265 78.8332 181.891 78.394 182.769 78.394C182.996 78.394 183.222 78.4207 183.488 78.4872ZM184.21 88.1365V86.7789H185.181C185.82 86.7789 186.219 86.6325 186.499 85.8606L186.685 85.3681L184.037 78.5138H185.754L187.444 83.3052L189.227 78.5138H190.904L187.683 86.5526C187.191 87.7771 186.499 88.2829 185.421 88.2829C184.968 88.2829 184.569 88.2296 184.21 88.1365Z" fill="#414956"/>
<rect x="68.6958" y="97.0049" width="94.4063" height="4.15916" rx="2.07958" fill="#DADEE3"/>
<rect x="23.9848" y="119.081" width="224.232" height="0.363101" stroke="#DADEE3" stroke-width="0.363101"/>
<path d="M28.0539 146.258H25.9227V149.262H24.7815V140.843H28.0539C29.7076 140.843 30.7673 141.926 30.7673 143.544C30.7673 145.116 29.6959 146.258 28.0539 146.258ZM27.8559 141.867H25.9227V145.233H27.8093C28.939 145.233 29.5678 144.569 29.5678 143.533C29.5678 142.473 28.9273 141.867 27.8559 141.867ZM31.2394 146.409C31.2394 144.651 32.4972 143.416 34.2091 143.416C35.9093 143.416 37.1671 144.651 37.1671 146.409C37.1671 148.168 35.9093 149.402 34.2091 149.402C32.4972 149.402 31.2394 148.168 31.2394 146.409ZM32.3458 146.409C32.3458 147.597 33.1027 148.424 34.2091 148.424C35.3038 148.424 36.0724 147.597 36.0724 146.409C36.0724 145.221 35.3038 144.394 34.2091 144.394C33.1027 144.394 32.3458 145.221 32.3458 146.409ZM39.4968 149.262H38.4021V140.691H39.4968V149.262ZM41.644 142.217C41.248 142.217 40.922 141.891 40.922 141.495C40.922 141.087 41.248 140.773 41.644 140.773C42.0399 140.773 42.366 141.087 42.366 141.495C42.366 141.891 42.0399 142.217 41.644 142.217ZM41.1083 149.262V143.568H42.203V149.262H41.1083ZM43.4196 146.421C43.4196 144.639 44.5492 143.405 46.2145 143.405C47.647 143.405 48.6485 144.22 48.8465 145.489H47.7518C47.5654 144.767 46.9832 144.383 46.2495 144.383C45.213 144.383 44.5026 145.175 44.5026 146.409C44.5026 147.632 45.1664 148.424 46.2029 148.424C46.9832 148.424 47.5654 148.016 47.7634 147.341H48.8581C48.6368 148.575 47.5771 149.402 46.2029 149.402C44.5259 149.402 43.4196 148.214 43.4196 146.421ZM49.352 151.813V150.916H50.0857C50.6098 150.916 51.029 150.834 51.2969 150.112L51.4948 149.565L49.2006 143.568H50.3536L52.0073 148.156L53.6959 143.568H54.8255L52.1354 150.543C51.751 151.522 51.1804 151.929 50.307 151.929C49.946 151.929 49.6432 151.883 49.352 151.813ZM56.7942 149.251H55.6995V140.691H56.7942V144.441C57.1552 143.824 57.8423 143.405 58.7273 143.405C60.183 143.405 60.8818 144.325 60.8818 145.78V149.262H59.7871V146.025C59.7871 144.872 59.2397 144.406 58.4245 144.406C57.3648 144.406 56.7942 145.175 56.7942 146.153V149.251ZM62.0253 146.409C62.0253 144.651 63.2831 143.416 64.995 143.416C66.6952 143.416 67.953 144.651 67.953 146.409C67.953 148.168 66.6952 149.402 64.995 149.402C63.2831 149.402 62.0253 148.168 62.0253 146.409ZM63.1317 146.409C63.1317 147.597 63.8886 148.424 64.995 148.424C66.0897 148.424 66.8583 147.597 66.8583 146.409C66.8583 145.221 66.0897 144.394 64.995 144.394C63.8886 144.394 63.1317 145.221 63.1317 146.409ZM70.2827 149.262H69.188V140.691H70.2827V149.262ZM74.1767 149.402C72.5231 149.402 71.5215 148.168 71.5215 146.432C71.5215 144.686 72.5347 143.405 74.2233 143.405C75.0967 143.405 75.8304 143.789 76.2147 144.488V140.691H77.2978V149.262H76.3195L76.2264 148.226C75.8537 149.006 75.0851 149.402 74.1767 149.402ZM74.398 148.412C75.516 148.412 76.2031 147.585 76.2031 146.397C76.2031 145.233 75.516 144.394 74.398 144.394C73.28 144.394 72.6279 145.233 72.6279 146.397C72.6279 147.574 73.28 148.412 74.398 148.412ZM81.3343 149.402C79.6573 149.402 78.5044 148.191 78.5044 146.421C78.5044 144.639 79.634 143.405 81.2877 143.405C82.9064 143.405 83.9662 144.523 83.9662 146.211V146.619L79.5641 146.63C79.6456 147.83 80.2745 148.494 81.3576 148.494C82.2077 148.494 82.7667 148.144 82.953 147.492H83.9778C83.6983 148.715 82.7434 149.402 81.3343 149.402ZM81.2877 144.325C80.3327 144.325 79.7272 144.895 79.5874 145.897H82.8715C82.8715 144.953 82.2543 144.325 81.2877 144.325ZM88.4497 143.521V144.523H87.9605C86.9241 144.523 86.2836 145.151 86.2836 146.246V149.262H85.1889V143.579H86.2137L86.2836 144.441C86.5165 143.847 87.0871 143.451 87.8674 143.451C88.0654 143.451 88.2284 143.474 88.4497 143.521Z" fill="#414956"/>
<path d="M164.597 146.256V145.897H165.546V146.256C165.546 146.965 165.935 147.474 166.734 147.474C167.552 147.474 167.911 146.975 167.911 146.226V141.045H168.89V146.266C168.89 147.564 168.021 148.382 166.734 148.382C165.356 148.382 164.597 147.504 164.597 146.256ZM170.041 145.817C170.041 144.309 171.119 143.251 172.586 143.251C174.043 143.251 175.121 144.309 175.121 145.817C175.121 147.324 174.043 148.382 172.586 148.382C171.119 148.382 170.041 147.324 170.041 145.817ZM170.989 145.817C170.989 146.835 171.638 147.544 172.586 147.544C173.524 147.544 174.183 146.835 174.183 145.817C174.183 144.799 173.524 144.09 172.586 144.09C171.638 144.09 170.989 144.799 170.989 145.817ZM177.098 148.252H176.16V140.916H177.098V144.13C177.408 143.601 177.997 143.241 178.755 143.241C180.003 143.241 180.602 144.03 180.602 145.278V148.262H179.664V145.487C179.664 144.499 179.195 144.1 178.496 144.1C177.588 144.1 177.098 144.759 177.098 145.597V148.252ZM182.84 148.262H181.902V143.381H182.75L182.85 144.13C183.159 143.571 183.778 143.241 184.467 143.241C185.755 143.241 186.344 144.03 186.344 145.278V148.262H185.405V145.487C185.405 144.499 184.946 144.1 184.228 144.1C183.349 144.1 182.84 144.729 182.84 145.677V148.262ZM188.582 148.262H187.643V143.381H188.492L188.592 144.13C188.901 143.571 189.52 143.241 190.209 143.241C191.496 143.241 192.085 144.03 192.085 145.278V148.262H191.147V145.487C191.147 144.499 190.688 144.1 189.969 144.1C189.091 144.1 188.582 144.729 188.582 145.677V148.262ZM192.818 150.448V149.68H193.447C193.896 149.68 194.256 149.61 194.485 148.991L194.655 148.522L192.688 143.381H193.677L195.094 147.314L196.542 143.381H197.51L195.204 149.36C194.875 150.199 194.385 150.548 193.637 150.548C193.327 150.548 193.068 150.508 192.818 150.448ZM201.448 148.262H200.429L203.065 141.045H204.153L206.798 148.262H205.77L205.121 146.466H202.086L201.448 148.262ZM203.484 142.603L202.386 145.617H204.831L203.723 142.603C203.674 142.463 203.624 142.293 203.604 142.183C203.584 142.283 203.534 142.453 203.484 142.603ZM207.598 150.448V143.381H208.446L208.516 144.26C208.845 143.591 209.504 143.241 210.283 143.241C211.68 143.241 212.549 144.289 212.549 145.787C212.549 147.274 211.73 148.392 210.283 148.392C209.504 148.392 208.855 148.063 208.536 147.464V150.448H207.598ZM208.546 145.827C208.546 146.825 209.125 147.544 210.083 147.544C211.041 147.544 211.61 146.825 211.61 145.827C211.61 144.819 211.041 144.1 210.083 144.1C209.125 144.1 208.546 144.809 208.546 145.827ZM213.583 150.448V143.381H214.431L214.501 144.26C214.831 143.591 215.489 143.241 216.268 143.241C217.665 143.241 218.534 144.289 218.534 145.787C218.534 147.274 217.715 148.392 216.268 148.392C215.489 148.392 214.841 148.063 214.521 147.464V150.448H213.583ZM214.531 145.827C214.531 146.825 215.11 147.544 216.068 147.544C217.027 147.544 217.596 146.825 217.596 145.827C217.596 144.819 217.027 144.1 216.068 144.1C215.11 144.1 214.531 144.809 214.531 145.827ZM220.526 148.262H219.588V140.916H220.526V148.262ZM224.014 148.382C222.576 148.382 221.588 147.344 221.588 145.827C221.588 144.299 222.556 143.241 223.974 143.241C225.361 143.241 226.27 144.2 226.27 145.647V145.996L222.497 146.006C222.566 147.035 223.105 147.604 224.034 147.604C224.762 147.604 225.242 147.304 225.401 146.745H226.28C226.04 147.793 225.222 148.382 224.014 148.382ZM223.974 144.03C223.155 144.03 222.636 144.519 222.517 145.378H225.331C225.331 144.569 224.802 144.03 223.974 144.03ZM226.919 146.845H227.817C227.817 147.344 228.196 147.643 228.815 147.643C229.474 147.643 229.853 147.374 229.853 146.925C229.853 146.595 229.693 146.396 229.184 146.266L228.326 146.066C227.458 145.857 227.048 145.427 227.048 144.709C227.048 143.81 227.807 143.241 228.885 143.241C229.953 143.241 230.652 143.84 230.672 144.769H229.773C229.753 144.28 229.424 143.97 228.855 143.97C228.266 143.97 227.937 144.23 227.937 144.679C227.937 145.008 228.176 145.228 228.655 145.348L229.514 145.557C230.342 145.757 230.752 146.136 230.752 146.865C230.752 147.793 229.953 148.382 228.795 148.382C227.647 148.382 226.919 147.773 226.919 146.845ZM233.898 148.382C232.461 148.382 231.473 147.344 231.473 145.827C231.473 144.299 232.441 143.241 233.858 143.241C235.246 143.241 236.154 144.2 236.154 145.647V145.996L232.381 146.006C232.451 147.035 232.99 147.604 233.918 147.604C234.647 147.604 235.126 147.304 235.286 146.745H236.164C235.925 147.793 235.106 148.382 233.898 148.382ZM233.858 144.03C233.04 144.03 232.521 144.519 232.401 145.378H235.216C235.216 144.569 234.687 144.03 233.858 144.03ZM239.308 148.382C237.871 148.382 236.883 147.344 236.883 145.827C236.883 144.299 237.851 143.241 239.269 143.241C240.656 143.241 241.564 144.2 241.564 145.647V145.996L237.791 146.006C237.861 147.035 238.4 147.604 239.328 147.604C240.057 147.604 240.536 147.304 240.696 146.745H241.574C241.335 147.793 240.516 148.382 239.308 148.382ZM239.269 144.03C238.45 144.03 237.931 144.519 237.811 145.378H240.626C240.626 144.569 240.097 144.03 239.269 144.03ZM244.569 148.382C243.151 148.382 242.293 147.324 242.293 145.837C242.293 144.339 243.161 143.241 244.609 143.241C245.357 143.241 245.986 143.571 246.316 144.17V140.916H247.244V148.262H246.406L246.326 147.374C246.006 148.043 245.348 148.382 244.569 148.382ZM244.759 147.534C245.717 147.534 246.306 146.825 246.306 145.807C246.306 144.809 245.717 144.09 244.759 144.09C243.8 144.09 243.241 144.809 243.241 145.807C243.241 146.815 243.8 147.534 244.759 147.534Z" fill="#414956"/>
<path d="M25.8994 176.244H24.7815V167.824H25.8994L28.7992 174.905L31.699 167.824H32.8402V176.244H31.7223V172.914C31.7223 171.341 31.7339 170.771 31.7921 170.177L29.3349 176.244H28.2635L25.8179 170.2C25.8761 170.608 25.8994 171.47 25.8994 172.646V176.244ZM34.2418 173.391C34.2418 171.633 35.4995 170.398 37.2115 170.398C38.9117 170.398 40.1695 171.633 40.1695 173.391C40.1695 175.15 38.9117 176.384 37.2115 176.384C35.4995 176.384 34.2418 175.15 34.2418 173.391ZM35.3482 173.391C35.3482 174.579 36.1051 175.406 37.2115 175.406C38.3061 175.406 39.0748 174.579 39.0748 173.391C39.0748 172.203 38.3061 171.376 37.2115 171.376C36.1051 171.376 35.3482 172.203 35.3482 173.391ZM42.4759 176.244H41.3812V170.55H42.3711L42.4876 171.423C42.8486 170.771 43.5706 170.387 44.3742 170.387C45.8765 170.387 46.5635 171.307 46.5635 172.762V176.244H45.4689V173.007C45.4689 171.854 44.9332 171.388 44.0947 171.388C43.0699 171.388 42.4759 172.122 42.4759 173.228V176.244ZM49.6869 176.244H48.5922V171.47H47.4742V170.55H48.5922V168.768H49.6869V170.55H50.8048V171.47H49.6869V176.244ZM52.8819 176.233H51.7873V167.673H52.8819V171.423C53.243 170.806 53.9301 170.387 54.8151 170.387C56.2708 170.387 56.9696 171.307 56.9696 172.762V176.244H55.8749V173.007C55.8749 171.854 55.3275 171.388 54.5123 171.388C53.4526 171.388 52.8819 172.157 52.8819 173.135V176.233ZM59.6038 176.244H58.5091V167.673H59.6038V176.244ZM60.6679 178.795V177.898H61.4016C61.9256 177.898 62.3449 177.816 62.6127 177.094L62.8107 176.547L60.5165 170.55H61.6694L63.3231 175.138L65.0117 170.55H66.1413L63.4512 177.525C63.0669 178.504 62.4962 178.911 61.6228 178.911C61.2618 178.911 60.959 178.865 60.6679 178.795ZM70.1997 178.795V170.55H71.1895L71.2711 171.574C71.6554 170.794 72.424 170.387 73.3323 170.387C74.9627 170.387 75.9759 171.609 75.9759 173.356C75.9759 175.091 75.021 176.396 73.3323 176.396C72.424 176.396 71.667 176.011 71.2944 175.313V178.795H70.1997ZM71.306 173.403C71.306 174.567 71.9814 175.406 73.0994 175.406C74.2174 175.406 74.8812 174.567 74.8812 173.403C74.8812 172.227 74.2174 171.388 73.0994 171.388C71.9814 171.388 71.306 172.215 71.306 173.403ZM80.4433 170.503V171.504H79.9542C78.9177 171.504 78.2772 172.133 78.2772 173.228V176.244H77.1825V170.561H78.2073L78.2772 171.423C78.5101 170.829 79.0807 170.433 79.861 170.433C80.059 170.433 80.222 170.456 80.4433 170.503ZM83.7225 176.384C82.0456 176.384 80.8926 175.173 80.8926 173.403C80.8926 171.621 82.0223 170.387 83.6759 170.387C85.2947 170.387 86.3544 171.504 86.3544 173.193V173.601L81.9524 173.612C82.0339 174.812 82.6628 175.476 83.7458 175.476C84.596 175.476 85.1549 175.126 85.3413 174.474H86.3661C86.0866 175.697 85.1317 176.384 83.7225 176.384ZM83.6759 171.307C82.721 171.307 82.1154 171.877 81.9757 172.879H85.2598C85.2598 171.935 84.6425 171.307 83.6759 171.307ZM88.6718 176.244H87.5772V170.55H88.5554L88.6602 171.295C88.9513 170.759 89.5569 170.387 90.3605 170.387C91.2455 170.387 91.8744 170.829 92.1655 171.539C92.4334 170.829 93.1205 170.387 94.0055 170.387C95.3099 170.387 96.1018 171.202 96.1018 172.518V176.244H95.0304V172.786C95.0304 171.889 94.5296 171.376 93.761 171.376C92.9341 171.376 92.3868 171.959 92.3868 172.867V176.244H91.3038V172.774C91.3038 171.877 90.8146 171.388 90.046 171.388C89.2192 171.388 88.6718 171.959 88.6718 172.867V176.244ZM98.155 169.199C97.759 169.199 97.4329 168.873 97.4329 168.477C97.4329 168.069 97.759 167.755 98.155 167.755C98.5509 167.755 98.877 168.069 98.877 168.477C98.877 168.873 98.5509 169.199 98.155 169.199ZM97.6193 176.244V170.55H98.7139V176.244H97.6193ZM103.887 170.55H104.97V176.244H103.992L103.875 175.382C103.549 175.976 102.792 176.384 101.954 176.384C100.626 176.384 99.8808 175.487 99.8808 174.09V170.55H100.975V173.729C100.975 174.952 101.5 175.417 102.338 175.417C103.34 175.417 103.887 174.777 103.887 173.554V170.55ZM107.653 176.244H106.558V170.55H107.536L107.641 171.295C107.932 170.759 108.538 170.387 109.342 170.387C110.227 170.387 110.855 170.829 111.147 171.539C111.414 170.829 112.102 170.387 112.987 170.387C114.291 170.387 115.083 171.202 115.083 172.518V176.244H114.011V172.786C114.011 171.889 113.511 171.376 112.742 171.376C111.915 171.376 111.368 171.959 111.368 172.867V176.244H110.285V172.774C110.285 171.877 109.796 171.388 109.027 171.388C108.2 171.388 107.653 171.959 107.653 172.867V176.244Z" fill="#414956"/>
<rect x="169.09" y="169.561" width="79.9747" height="4.36567" rx="2.18284" fill="#DADEE3"/>
<path d="M28.0539 200.222H25.9227V203.226H24.7815V194.807H28.0539C29.7076 194.807 30.7673 195.89 30.7673 197.508C30.7673 199.08 29.6959 200.222 28.0539 200.222ZM27.8559 195.831H25.9227V199.197H27.8093C28.939 199.197 29.5678 198.533 29.5678 197.497C29.5678 196.437 28.9273 195.831 27.8559 195.831ZM33.3115 203.366C32.0887 203.366 31.3667 202.679 31.3667 201.643C31.3667 200.594 32.147 199.942 33.4862 199.837L35.2796 199.698V199.535C35.2796 198.58 34.709 198.242 33.9404 198.242C33.0204 198.242 32.4963 198.65 32.4963 199.337H31.5414C31.5414 198.149 32.5196 197.369 33.987 197.369C35.3961 197.369 36.351 198.114 36.351 199.651V203.226H35.4194L35.3029 202.306C35.0118 202.958 34.2315 203.366 33.3115 203.366ZM33.626 202.516C34.6624 202.516 35.2913 201.84 35.2913 200.769V200.466L33.8356 200.583C32.869 200.676 32.473 201.049 32.473 201.608C32.473 202.213 32.9156 202.516 33.626 202.516ZM37.1833 205.777V204.88H37.9169C38.441 204.88 38.8602 204.798 39.1281 204.076L39.3261 203.529L37.0319 197.532H38.1848L39.8385 202.12L41.5271 197.532H42.6567L39.9666 204.507C39.5823 205.486 39.0116 205.893 38.1382 205.893C37.7772 205.893 37.4744 205.847 37.1833 205.777ZM44.6254 203.226H43.5307V197.532H44.5089L44.6137 198.277C44.9049 197.741 45.5104 197.369 46.314 197.369C47.1991 197.369 47.8279 197.811 48.1191 198.521C48.3869 197.811 49.074 197.369 49.9591 197.369C51.2634 197.369 52.0553 198.184 52.0553 199.5V203.226H50.9839V199.768C50.9839 198.871 50.4831 198.358 49.7145 198.358C48.8877 198.358 48.3403 198.941 48.3403 199.849V203.226H47.2573V199.756C47.2573 198.859 46.7682 198.37 45.9996 198.37C45.1727 198.37 44.6254 198.941 44.6254 199.849V203.226ZM56.03 203.366C54.353 203.366 53.2001 202.155 53.2001 200.385C53.2001 198.603 54.3297 197.369 55.9834 197.369C57.6022 197.369 58.6619 198.487 58.6619 200.175V200.583L54.2599 200.594C54.3414 201.794 54.9703 202.458 56.0533 202.458C56.9034 202.458 57.4624 202.108 57.6487 201.456H58.6736C58.3941 202.679 57.4391 203.366 56.03 203.366ZM55.9834 198.289C55.0285 198.289 54.4229 198.859 54.2832 199.861H57.5672C57.5672 198.917 56.95 198.289 55.9834 198.289ZM60.9793 203.226H59.8846V197.532H60.8745L60.991 198.405C61.352 197.753 62.074 197.369 62.8776 197.369C64.3798 197.369 65.0669 198.289 65.0669 199.744V203.226H63.9722V199.989C63.9722 198.836 63.4365 198.37 62.5981 198.37C61.5732 198.37 60.9793 199.104 60.9793 200.21V203.226ZM68.1902 203.226H67.0956V198.452H65.9776V197.532H67.0956V195.75H68.1902V197.532H69.3082V198.452H68.1902V203.226ZM74.5697 203.226H73.475V197.532H74.4532L74.558 198.277C74.8492 197.741 75.4548 197.369 76.2583 197.369C77.1434 197.369 77.7722 197.811 78.0634 198.521C78.3312 197.811 79.0183 197.369 79.9034 197.369C81.2077 197.369 81.9996 198.184 81.9996 199.5V203.226H80.9282V199.768C80.9282 198.871 80.4275 198.358 79.6588 198.358C78.832 198.358 78.2847 198.941 78.2847 199.849V203.226H77.2016V199.756C77.2016 198.859 76.7125 198.37 75.9439 198.37C75.117 198.37 74.5697 198.941 74.5697 199.849V203.226ZM85.9743 203.366C84.2974 203.366 83.1444 202.155 83.1444 200.385C83.1444 198.603 84.2741 197.369 85.9277 197.369C87.5465 197.369 88.6062 198.487 88.6062 200.175V200.583L84.2042 200.594C84.2857 201.794 84.9146 202.458 85.9976 202.458C86.8478 202.458 87.4067 202.108 87.5931 201.456H88.6179C88.3384 202.679 87.3835 203.366 85.9743 203.366ZM85.9277 198.289C84.9728 198.289 84.3672 198.859 84.2275 199.861H87.5116C87.5116 198.917 86.8943 198.289 85.9277 198.289ZM91.3792 203.226H90.2845V198.452H89.1665V197.532H90.2845V195.75H91.3792V197.532H92.4972V198.452H91.3792V203.226ZM94.5743 203.215H93.4796V194.655H94.5743V198.405C94.9353 197.788 95.6224 197.369 96.5075 197.369C97.9632 197.369 98.6619 198.289 98.6619 199.744V203.226H97.5672V199.989C97.5672 198.836 97.0199 198.37 96.2047 198.37C95.1449 198.37 94.5743 199.139 94.5743 200.117V203.215ZM99.8054 200.373C99.8054 198.615 101.063 197.38 102.775 197.38C104.475 197.38 105.733 198.615 105.733 200.373C105.733 202.132 104.475 203.366 102.775 203.366C101.063 203.366 99.8054 202.132 99.8054 200.373ZM100.912 200.373C100.912 201.561 101.669 202.388 102.775 202.388C103.87 202.388 104.638 201.561 104.638 200.373C104.638 199.185 103.87 198.358 102.775 198.358C101.669 198.358 100.912 199.185 100.912 200.373ZM109.227 203.366C107.574 203.366 106.572 202.132 106.572 200.396C106.572 198.65 107.585 197.369 109.274 197.369C110.147 197.369 110.881 197.753 111.265 198.452V194.655H112.348V203.226H111.37L111.277 202.19C110.904 202.97 110.136 203.366 109.227 203.366ZM109.449 202.376C110.567 202.376 111.254 201.549 111.254 200.361C111.254 199.197 110.567 198.358 109.449 198.358C108.331 198.358 107.679 199.197 107.679 200.361C107.679 201.538 108.331 202.376 109.449 202.376Z" fill="#414956"/>
</g>
</g>
<g filter="url(#filter1_dd_341_19098)">
<path d="M140.676 211.367C140.676 209.484 142.202 207.958 144.085 207.958H270.813C272.696 207.958 274.222 209.484 274.222 211.367V251.131C274.222 253.014 272.696 254.541 270.813 254.541H144.085C142.202 254.541 140.676 253.014 140.676 251.131V211.367Z" fill="#1E7F48" shape-rendering="crispEdges"/>
<path d="M166.502 237.429C163.313 237.429 161.246 235.213 161.246 231.784C161.246 228.385 163.388 226.124 166.592 226.124C169.182 226.124 171.114 227.637 171.488 229.987H169.467C169.092 228.715 167.999 227.966 166.547 227.966C164.526 227.966 163.253 229.433 163.253 231.769C163.253 234.09 164.54 235.587 166.547 235.587C168.029 235.587 169.167 234.809 169.526 233.596H171.518C171.099 235.902 169.092 237.429 166.502 237.429ZM174.721 237.249H172.894V226.109H174.736V230.811C175.2 230.092 176.068 229.628 177.131 229.628C178.958 229.628 179.916 230.781 179.916 232.697V237.249H178.09V233.132C178.09 231.889 177.476 231.29 176.547 231.29C175.394 231.29 174.721 232.099 174.721 233.207V237.249ZM185.02 237.444C182.819 237.444 181.277 235.842 181.277 233.551C181.277 231.23 182.789 229.628 184.96 229.628C187.176 229.628 188.584 231.11 188.584 233.416V233.97L183.014 233.985C183.148 235.288 183.837 235.947 185.05 235.947C186.053 235.947 186.712 235.557 186.922 234.854H188.614C188.299 236.471 186.952 237.444 185.02 237.444ZM184.975 231.125C183.897 231.125 183.238 231.709 183.059 232.817H186.772C186.772 231.799 186.068 231.125 184.975 231.125ZM189.611 233.536C189.611 231.245 191.124 229.628 193.31 229.628C195.331 229.628 196.709 230.751 196.903 232.533H195.077C194.867 231.694 194.253 231.26 193.385 231.26C192.217 231.26 191.438 232.143 191.438 233.536C191.438 234.928 192.157 235.797 193.325 235.797C194.238 235.797 194.882 235.348 195.077 234.539H196.918C196.694 236.261 195.256 237.444 193.325 237.444C191.079 237.444 189.611 235.887 189.611 233.536ZM200.12 237.249H198.308V226.109H200.12V232.952L202.994 229.853H205.285L202.47 232.787L205.225 237.249H203.129L201.198 234.135L200.12 235.258V237.249ZM205.564 233.536C205.564 231.23 207.226 229.643 209.517 229.643C211.808 229.643 213.47 231.23 213.47 233.536C213.47 235.842 211.808 237.429 209.517 237.429C207.226 237.429 205.564 235.842 205.564 233.536ZM207.391 233.536C207.391 234.884 208.259 235.797 209.517 235.797C210.775 235.797 211.643 234.884 211.643 233.536C211.643 232.188 210.775 231.275 209.517 231.275C208.259 231.275 207.391 232.188 207.391 233.536ZM219.758 229.853H221.585V237.249H219.893L219.758 236.261C219.309 236.965 218.351 237.444 217.363 237.444C215.656 237.444 214.652 236.291 214.652 234.479V229.853H216.479V233.835C216.479 235.243 217.033 235.812 218.051 235.812C219.204 235.812 219.758 235.138 219.758 233.731V229.853ZM225.987 237.249H224.16V231.38H222.738V229.853H224.16V227.547H225.987V229.853H227.425V231.38H225.987V237.249Z" fill="white"/>
<path fill-rule="evenodd" clip-rule="evenodd" d="M237.622 231.249C237.622 230.79 237.994 230.417 238.454 230.417H250.099C250.559 230.417 250.931 230.79 250.931 231.249C250.931 231.709 250.559 232.081 250.099 232.081H238.454C237.994 232.081 237.622 231.709 237.622 231.249Z" fill="white"/>
<path fill-rule="evenodd" clip-rule="evenodd" d="M243.688 224.838C244.013 224.513 244.54 224.513 244.865 224.838L250.687 230.661C251.012 230.986 251.012 231.513 250.687 231.837L244.865 237.66C244.54 237.985 244.013 237.985 243.688 237.66C243.363 237.335 243.363 236.809 243.688 236.484L248.923 231.249L243.688 226.015C243.363 225.69 243.363 225.163 243.688 224.838Z" fill="white"/>
</g>
<defs>
<filter id="filter0_dd_341_19098" x="0.511971" y="12.0616" width="271.177" height="279.496" filterUnits="userSpaceOnUse" color-interpolation-filters="sRGB">
<feFlood flood-opacity="0" result="BackgroundImageFix"/>
<feColorMatrix in="SourceAlpha" type="matrix" values="0 0 0 0 0 0 0 0 0 0 0 0 0 0 0 0 0 0 127 0" result="hardAlpha"/>
<feOffset dy="3.32733"/>
<feGaussianBlur stdDeviation="3.32733"/>
<feComposite in2="hardAlpha" operator="out"/>
<feColorMatrix type="matrix" values="0 0 0 0 0 0 0 0 0 0 0 0 0 0 0 0 0 0 0.14 0"/>
<feBlend mode="normal" in2="BackgroundImageFix" result="effect1_dropShadow_341_19098"/>
<feColorMatrix in="SourceAlpha" type="matrix" values="0 0 0 0 0 0 0 0 0 0 0 0 0 0 0 0 0 0 127 0" result="hardAlpha"/>
<feOffset/>
<feGaussianBlur stdDeviation="0.831832"/>
<feComposite in2="hardAlpha" operator="out"/>
<feColorMatrix type="matrix" values="0 0 0 0 0 0 0 0 0 0 0 0 0 0 0 0 0 0 0.12 0"/>
<feBlend mode="normal" in2="effect1_dropShadow_341_19098" result="effect2_dropShadow_341_19098"/>
<feBlend mode="normal" in="SourceGraphic" in2="effect2_dropShadow_341_19098" result="shape"/>
</filter>
<filter id="filter1_dd_341_19098" x="136.676" y="205.958" width="141.547" height="54.5826" filterUnits="userSpaceOnUse" color-interpolation-filters="sRGB">
<feFlood flood-opacity="0" result="BackgroundImageFix"/>
<feColorMatrix in="SourceAlpha" type="matrix" values="0 0 0 0 0 0 0 0 0 0 0 0 0 0 0 0 0 0 127 0" result="hardAlpha"/>
<feOffset dy="2"/>
<feGaussianBlur stdDeviation="2"/>
<feComposite in2="hardAlpha" operator="out"/>
<feColorMatrix type="matrix" values="0 0 0 0 0 0 0 0 0 0 0 0 0 0 0 0 0 0 0.14 0"/>
<feBlend mode="normal" in2="BackgroundImageFix" result="effect1_dropShadow_341_19098"/>
<feColorMatrix in="SourceAlpha" type="matrix" values="0 0 0 0 0 0 0 0 0 0 0 0 0 0 0 0 0 0 127 0" result="hardAlpha"/>
<feOffset/>
<feGaussianBlur stdDeviation="1"/>
<feComposite in2="hardAlpha" operator="out"/>
<feColorMatrix type="matrix" values="0 0 0 0 0 0 0 0 0 0 0 0 0 0 0 0 0 0 0.12 0"/>
<feBlend mode="normal" in2="effect1_dropShadow_341_19098" result="effect2_dropShadow_341_19098"/>
<feBlend mode="normal" in="SourceGraphic" in2="effect2_dropShadow_341_19098" result="shape"/>
</filter>
<clipPath id="clip0_341_19098">
<rect x="7.16663" y="15.3889" width="257.868" height="266.186" rx="9.98198" fill="white"/>
</clipPath>
</defs>
</svg>
