<svg width="278" height="297" viewBox="0 0 278 297" fill="none" xmlns="http://www.w3.org/2000/svg">
<g filter="url(#filter0_dd_341_19160)">
<g clip-path="url(#clip0_341_19160)">
<mask id="path-2-inside-1_341_19160" fill="white">
<path d="M10.3993 15.3889H268.267V52.3529H10.3993V15.3889Z"/>
</mask>
<path d="M10.3993 15.3889H268.267V52.3529H10.3993V15.3889Z" fill="white"/>
<path d="M268.267 51.521H10.3993V53.1847H268.267V51.521Z" fill="#DADEE3" mask="url(#path-2-inside-1_341_19160)"/>
<path d="M114.215 38.3708H113.097V29.951H114.215L117.114 37.0316L120.014 29.951H121.155V38.3708H120.037V35.0402C120.037 33.468 120.049 32.8974 120.107 32.3035L117.65 38.3708H116.579L114.133 32.3268C114.191 32.7344 114.215 33.5961 114.215 34.7723V38.3708ZM122.382 40.9212V40.0245H123.116C123.64 40.0245 124.059 39.943 124.327 39.221L124.525 38.6736L122.231 32.6761H123.384L125.037 37.2645L126.726 32.6761H127.856L125.166 39.6519C124.781 40.6301 124.211 41.0377 123.337 41.0377C122.976 41.0377 122.673 40.9911 122.382 40.9212ZM135.594 38.499C133.195 38.499 131.6 36.7754 131.6 34.1668C131.6 31.5698 133.242 29.8113 135.652 29.8113C137.551 29.8113 139.006 30.9409 139.321 32.6645H138.098C137.783 31.5698 136.84 30.906 135.617 30.906C133.917 30.906 132.799 32.187 132.799 34.1551C132.799 36.1232 133.917 37.4043 135.617 37.4043C136.852 37.4043 137.83 36.7405 138.144 35.704H139.356C138.995 37.381 137.492 38.499 135.594 38.499ZM141.63 38.3708H140.535V29.7997H141.63V38.3708ZM144.907 38.5106C143.684 38.5106 142.962 37.8235 142.962 36.787C142.962 35.7389 143.742 35.0868 145.081 34.982L146.875 34.8422V34.6792C146.875 33.7242 146.304 33.3865 145.535 33.3865C144.615 33.3865 144.091 33.7941 144.091 34.4812H143.136C143.136 33.2933 144.115 32.5131 145.582 32.5131C146.991 32.5131 147.946 33.2584 147.946 34.7956V38.3708H147.014L146.898 37.4508C146.607 38.103 145.827 38.5106 144.907 38.5106ZM145.221 37.6605C146.258 37.6605 146.886 36.985 146.886 35.9136V35.6108L145.431 35.7273C144.464 35.8205 144.068 36.1931 144.068 36.7521C144.068 37.3577 144.511 37.6605 145.221 37.6605ZM149.998 31.3252C149.602 31.3252 149.276 30.9992 149.276 30.6032C149.276 30.1956 149.602 29.8812 149.998 29.8812C150.394 29.8812 150.72 30.1956 150.72 30.6032C150.72 30.9992 150.394 31.3252 149.998 31.3252ZM149.462 38.3708V32.6761H150.557V38.3708H149.462ZM153.241 38.3708H152.146V32.6761H153.124L153.229 33.4214C153.52 32.8857 154.126 32.5131 154.929 32.5131C155.814 32.5131 156.443 32.9556 156.734 33.666C157.002 32.9556 157.689 32.5131 158.575 32.5131C159.879 32.5131 160.671 33.3283 160.671 34.6442V38.3708H159.599V34.9121C159.599 34.0154 159.099 33.503 158.33 33.503C157.503 33.503 156.956 34.0853 156.956 34.9936V38.3708H155.873V34.9004C155.873 34.0037 155.384 33.5146 154.615 33.5146C153.788 33.5146 153.241 34.0853 153.241 34.9936V38.3708ZM161.654 36.7172H162.702C162.702 37.2994 163.145 37.6488 163.867 37.6488C164.635 37.6488 165.078 37.3344 165.078 36.8103C165.078 36.426 164.892 36.1931 164.298 36.0417L163.296 35.8088C162.283 35.5642 161.806 35.0635 161.806 34.225C161.806 33.1769 162.691 32.5131 163.948 32.5131C165.194 32.5131 166.01 33.2118 166.033 34.2949H164.985C164.961 33.7242 164.577 33.3632 163.913 33.3632C163.226 33.3632 162.842 33.666 162.842 34.1901C162.842 34.5744 163.121 34.8306 163.68 34.9703L164.682 35.2149C165.649 35.4478 166.126 35.8903 166.126 36.7405C166.126 37.8235 165.194 38.5106 163.844 38.5106C162.504 38.5106 161.654 37.8002 161.654 36.7172Z" fill="#414956"/>
<rect width="257.868" height="229.222" transform="translate(10.3993 52.3529)" fill="white"/>
<rect x="27.4518" y="69.4055" width="223.763" height="80.4189" rx="9.56607" fill="white"/>
<rect x="27.4518" y="69.4055" width="223.763" height="80.4189" rx="9.56607" stroke="#DADEE3" stroke-width="0.831832"/>
<rect x="40.3452" y="82.2991" width="172.189" height="4.15916" rx="2.07958" fill="#DADEE3"/>
<path d="M44.8171 122.046C42.4181 122.046 40.8226 120.322 40.8226 117.714C40.8226 115.117 42.4647 113.358 44.8753 113.358C46.7736 113.358 48.2293 114.488 48.5437 116.211H47.3209C47.0065 115.117 46.0632 114.453 44.8404 114.453C43.1401 114.453 42.0221 115.734 42.0221 117.702C42.0221 119.67 43.1401 120.951 44.8404 120.951C46.0748 120.951 47.053 120.287 47.3675 119.251H48.5786C48.2176 120.928 46.7153 122.046 44.8171 122.046ZM50.8528 121.918H49.7581V113.346H50.8528V121.918ZM54.1296 122.057C52.9068 122.057 52.1848 121.37 52.1848 120.334C52.1848 119.286 52.965 118.634 54.3043 118.529L56.0977 118.389V118.226C56.0977 117.271 55.5271 116.933 54.7585 116.933C53.8385 116.933 53.3144 117.341 53.3144 118.028H52.3595C52.3595 116.84 53.3377 116.06 54.805 116.06C56.2142 116.06 57.1691 116.805 57.1691 118.342V121.918H56.2375L56.121 120.998C55.8299 121.65 55.0496 122.057 54.1296 122.057ZM54.444 121.207C55.4805 121.207 56.1094 120.532 56.1094 119.46V119.158L54.6537 119.274C53.6871 119.367 53.2911 119.74 53.2911 120.299C53.2911 120.904 53.7336 121.207 54.444 121.207ZM59.2208 114.872C58.8249 114.872 58.4988 114.546 58.4988 114.15C58.4988 113.742 58.8249 113.428 59.2208 113.428C59.6168 113.428 59.9429 113.742 59.9429 114.15C59.9429 114.546 59.6168 114.872 59.2208 114.872ZM58.6851 121.918V116.223H59.7798V121.918H58.6851ZM62.4638 121.918H61.3691V116.223H62.3473L62.4521 116.968C62.7433 116.433 63.3489 116.06 64.1524 116.06C65.0375 116.06 65.6663 116.502 65.9575 117.213C66.2253 116.502 66.9124 116.06 67.7975 116.06C69.1018 116.06 69.8937 116.875 69.8937 118.191V121.918H68.8223V118.459C68.8223 117.562 68.3215 117.05 67.5529 117.05C66.7261 117.05 66.1787 117.632 66.1787 118.54V121.918H65.0957V118.447C65.0957 117.55 64.6066 117.061 63.838 117.061C63.0111 117.061 62.4638 117.632 62.4638 118.54V121.918ZM74.5257 118.552H75.6902L76.0163 116.863H74.6654L74.875 115.839H76.2259L76.6801 113.498H77.7632L77.309 115.839H79.0908L79.5449 113.498H80.6396L80.1855 115.839H81.385L81.187 116.863H79.9758L79.6498 118.552H80.9541L80.7561 119.577H79.4401L78.986 121.918H77.9029L78.3571 119.577H76.5637L76.1095 121.918H75.0264L75.4806 119.577H74.3161L74.5257 118.552ZM76.7733 118.552H78.5551L78.8928 116.863H77.0994L76.7733 118.552ZM84.0901 114.523H82.32V113.498H85.1848V121.918H84.0901V114.523ZM92.3732 121.906L86.6901 121.918V121.044L89.4035 118.703C90.7661 117.527 91.1504 116.957 91.1504 116.06C91.1504 115 90.5448 114.371 89.5316 114.371C88.4952 114.371 87.8197 115.128 87.7964 116.328H86.6552C86.6901 114.523 87.8314 113.346 89.5433 113.346C91.2319 113.346 92.3149 114.371 92.3149 115.99C92.3149 117.189 91.721 118.04 90.2304 119.332L88.4835 120.846H92.3732V121.906ZM95.8797 117.562H95.0412V116.805L97.4286 114.511H93.6437V113.498H98.8726V114.418L96.5668 116.619C97.9992 116.794 99.0822 117.76 99.0822 119.274C99.0822 120.974 97.8012 122.057 96.0893 122.057C94.4356 122.057 93.2478 121.044 93.2478 119.297H94.3774C94.3774 120.392 95.0529 121.033 96.1126 121.033C97.2073 121.033 97.9177 120.334 97.9177 119.251C97.9177 118.238 97.2189 117.562 95.8797 117.562ZM106.354 120.217H105.352V121.918H104.257V120.217H99.9019V119.204L103.873 113.498H105.352V119.204H106.354V120.217ZM101.136 119.204H104.257V114.709L101.136 119.204ZM110.185 122.057C108.461 122.057 107.343 120.963 107.343 119.286H108.473C108.473 120.369 109.137 121.033 110.208 121.033C111.35 121.033 112.083 120.276 112.083 119.134C112.083 118.051 111.396 117.248 110.22 117.248C109.51 117.248 108.857 117.585 108.473 118.063L107.507 117.818L108.531 113.498H112.747V114.546H109.358L108.799 116.782C109.242 116.444 109.801 116.269 110.43 116.269C112.141 116.269 113.248 117.469 113.248 119.088C113.248 120.835 112.002 122.057 110.185 122.057ZM115.307 116.165L117.275 113.498H118.603L116.495 116.293C116.786 116.176 117.089 116.118 117.38 116.118C119.127 116.118 120.303 117.376 120.303 119.041C120.303 120.8 118.975 122.057 117.24 122.057C115.493 122.057 114.142 120.741 114.142 119.041C114.142 118.04 114.445 117.341 115.307 116.165ZM115.307 119.053C115.307 120.206 116.099 121.033 117.24 121.033C118.358 121.033 119.15 120.206 119.15 119.053C119.15 117.9 118.358 117.085 117.24 117.085C116.099 117.085 115.307 117.9 115.307 119.053ZM120.229 113.498H126.11V114.546L122.919 121.918H121.731L124.957 114.546H120.229V113.498ZM126.62 119.577C126.62 118.564 127.214 117.748 128.146 117.411C127.354 117.073 126.923 116.409 126.923 115.559C126.923 114.243 128.052 113.346 129.729 113.346C131.383 113.346 132.501 114.243 132.501 115.571C132.501 116.433 132.058 117.096 131.267 117.411C132.21 117.714 132.815 118.552 132.815 119.588C132.815 121.067 131.581 122.057 129.718 122.057C127.843 122.057 126.62 121.067 126.62 119.577ZM127.971 115.629C127.971 116.456 128.658 116.991 129.706 116.991C130.766 116.991 131.43 116.467 131.43 115.652C131.43 114.849 130.766 114.336 129.706 114.336C128.658 114.336 127.971 114.849 127.971 115.629ZM127.738 119.495C127.738 120.439 128.518 121.044 129.718 121.044C130.906 121.044 131.686 120.439 131.686 119.495C131.686 118.564 130.917 117.97 129.706 117.97C128.507 117.97 127.738 118.564 127.738 119.495ZM138.825 119.251L136.856 121.918H135.529L137.637 119.123C137.346 119.239 137.043 119.297 136.752 119.297C135.005 119.297 133.829 118.04 133.829 116.363C133.829 114.616 135.156 113.346 136.891 113.346C138.638 113.346 139.989 114.662 139.989 116.374C139.989 117.364 139.686 118.075 138.825 119.251ZM138.825 116.363C138.825 115.21 138.033 114.371 136.891 114.371C135.773 114.371 134.982 115.21 134.982 116.363C134.982 117.516 135.773 118.331 136.891 118.331C138.033 118.331 138.825 117.516 138.825 116.363ZM141.041 117.714C141.041 115.105 142.392 113.335 144.511 113.335C146.619 113.335 147.97 115.105 147.97 117.714C147.97 120.334 146.678 122.069 144.511 122.069C142.334 122.069 141.041 120.334 141.041 117.714ZM142.171 117.714C142.171 119.786 143.032 121.044 144.511 121.044C145.99 121.044 146.841 119.786 146.841 117.714C146.841 115.617 145.99 114.36 144.511 114.36C143.032 114.36 142.171 115.617 142.171 117.714Z" fill="#414956"/>
<rect x="40.3452" y="132.572" width="43.2553" height="4.3588" rx="2.1794" fill="#DADEE3"/>
<path d="M197.138 113.948V121.165H196.16V113.948H197.138ZM199.599 121.165H198.661V116.284H199.51L199.609 117.033C199.919 116.474 200.538 116.144 201.227 116.144C202.514 116.144 203.103 116.933 203.103 118.181V121.165H202.165V118.39C202.165 117.402 201.706 117.003 200.987 117.003C200.109 117.003 199.599 117.632 199.599 118.58V121.165ZM208.27 121.165H207.292V113.948H210.017C211.564 113.948 212.483 114.767 212.483 116.115C212.483 117.113 211.983 117.831 211.085 118.121L212.552 121.165H211.464L210.117 118.311H208.27V121.165ZM208.27 114.827V117.442H210.027C210.935 117.442 211.454 116.953 211.454 116.125C211.454 115.286 210.915 114.827 210.017 114.827H208.27ZM215.419 121.285C213.981 121.285 212.993 120.247 212.993 118.73C212.993 117.203 213.961 116.144 215.379 116.144C216.766 116.144 217.675 117.103 217.675 118.55V118.899L213.901 118.909C213.971 119.938 214.51 120.507 215.439 120.507C216.167 120.507 216.646 120.207 216.806 119.648H217.685C217.445 120.696 216.626 121.285 215.419 121.285ZM215.379 116.933C214.56 116.933 214.041 117.422 213.921 118.281H216.736C216.736 117.472 216.207 116.933 215.379 116.933ZM219.924 121.165L217.958 116.284H218.956L220.024 119.009C220.194 119.468 220.334 119.878 220.414 120.177C220.493 119.858 220.653 119.439 220.823 119.009L221.911 116.284H222.889L220.853 121.165H219.924ZM224.095 115.126C223.755 115.126 223.476 114.847 223.476 114.507C223.476 114.158 223.755 113.889 224.095 113.889C224.434 113.889 224.714 114.158 224.714 114.507C224.714 114.847 224.434 115.126 224.095 115.126ZM223.636 121.165V116.284H224.574V121.165H223.636ZM228.042 121.285C226.605 121.285 225.617 120.247 225.617 118.73C225.617 117.203 226.585 116.144 228.002 116.144C229.39 116.144 230.298 117.103 230.298 118.55V118.899L226.525 118.909C226.595 119.938 227.134 120.507 228.062 120.507C228.791 120.507 229.27 120.207 229.43 119.648H230.308C230.069 120.696 229.25 121.285 228.042 121.285ZM228.002 116.933C227.184 116.933 226.665 117.422 226.545 118.281H229.36C229.36 117.472 228.831 116.933 228.002 116.933ZM232.229 121.165L230.632 116.284H231.6L232.408 118.82C232.518 119.179 232.618 119.548 232.708 119.978C232.788 119.548 232.917 119.139 233.027 118.82L233.846 116.284H234.804L235.613 118.82C235.692 119.059 235.852 119.628 235.932 119.978C236.012 119.588 236.102 119.249 236.241 118.82L237.06 116.284H238.038L236.371 121.165H235.483L234.634 118.55C234.475 118.061 234.375 117.682 234.325 117.412C234.275 117.652 234.185 117.971 234.005 118.56L233.157 121.165H232.229Z" fill="#414956"/>
<rect x="27.4518" y="167.293" width="223.763" height="96.0781" rx="9.56607" fill="white"/>
<rect x="27.4518" y="167.293" width="223.763" height="96.0781" rx="9.56607" stroke="#DADEE3" stroke-width="0.831832" stroke-dasharray="6.65 6.65"/>
<path d="M91.44 193.186H88.3772V184.673H91.3585C93.8739 184.673 95.6091 186.409 95.6091 188.947C95.6091 191.451 93.9089 193.186 91.44 193.186ZM91.2187 186.047H89.8678V191.812H91.3003C93.0005 191.812 94.037 190.717 94.037 188.947C94.037 187.142 92.9772 186.047 91.2187 186.047ZM100.398 187.41V188.726H99.8742C98.8494 188.726 98.2088 189.273 98.2088 190.391V193.186H96.7881V187.445H98.1273L98.2088 188.283C98.4534 187.713 99.0008 187.329 99.7694 187.329C99.9673 187.329 100.165 187.352 100.398 187.41ZM102.844 193.338C101.622 193.338 100.876 192.627 100.876 191.544C100.876 190.484 101.645 189.821 103.007 189.716L104.731 189.588V189.46C104.731 188.679 104.265 188.365 103.543 188.365C102.705 188.365 102.239 188.714 102.239 189.32H101.028C101.028 188.074 102.052 187.259 103.613 187.259C105.162 187.259 106.117 188.097 106.117 189.693V193.186H104.871L104.766 192.336C104.521 192.93 103.741 193.338 102.844 193.338ZM103.31 192.266C104.184 192.266 104.743 191.742 104.743 190.857V190.554L103.543 190.648C102.658 190.729 102.32 191.02 102.32 191.486C102.32 192.01 102.67 192.266 103.31 192.266ZM107.186 190.182C107.186 188.505 108.281 187.247 109.923 187.247C110.785 187.247 111.46 187.608 111.798 188.225L111.88 187.433H113.196V192.895C113.196 194.817 112.043 196.016 110.179 196.016C108.526 196.016 107.396 195.073 107.221 193.536H108.642C108.735 194.281 109.306 194.724 110.179 194.724C111.158 194.724 111.786 194.106 111.786 193.151V192.196C111.425 192.732 110.715 193.07 109.888 193.07C108.258 193.07 107.186 191.847 107.186 190.182ZM108.619 190.147C108.619 191.113 109.236 191.835 110.168 191.835C111.146 191.835 111.752 191.148 111.752 190.147C111.752 189.169 111.158 188.493 110.168 188.493C109.224 188.493 108.619 189.203 108.619 190.147ZM119.517 193.338C118.294 193.338 117.549 192.627 117.549 191.544C117.549 190.484 118.317 189.821 119.68 189.716L121.403 189.588V189.46C121.403 188.679 120.938 188.365 120.215 188.365C119.377 188.365 118.911 188.714 118.911 189.32H117.7C117.7 188.074 118.725 187.259 120.285 187.259C121.834 187.259 122.789 188.097 122.789 189.693V193.186H121.543L121.438 192.336C121.194 192.93 120.413 193.338 119.517 193.338ZM119.983 192.266C120.856 192.266 121.415 191.742 121.415 190.857V190.554L120.215 190.648C119.33 190.729 118.993 191.02 118.993 191.486C118.993 192.01 119.342 192.266 119.983 192.266ZM125.606 193.186H124.185V187.433H125.501L125.617 188.179C125.978 187.596 126.677 187.259 127.457 187.259C128.901 187.259 129.647 188.155 129.647 189.646V193.186H128.226V189.984C128.226 189.017 127.748 188.551 127.015 188.551C126.141 188.551 125.606 189.157 125.606 190.089V193.186ZM133.407 193.338C131.741 193.338 130.705 192.115 130.705 190.333C130.705 188.54 131.753 187.259 133.488 187.259C134.292 187.259 135.002 187.596 135.363 188.167V184.522H136.772V193.186H135.468L135.375 192.29C135.025 192.953 134.28 193.338 133.407 193.338ZM133.721 192.033C134.711 192.033 135.352 191.323 135.352 190.287C135.352 189.25 134.711 188.528 133.721 188.528C132.731 188.528 132.126 189.262 132.126 190.287C132.126 191.311 132.731 192.033 133.721 192.033ZM143.756 193.338C142.091 193.338 141.054 192.115 141.054 190.333C141.054 188.54 142.102 187.259 143.837 187.259C144.641 187.259 145.351 187.596 145.712 188.167V184.522H147.121V193.186H145.817L145.724 192.29C145.375 192.953 144.629 193.338 143.756 193.338ZM144.07 192.033C145.06 192.033 145.701 191.323 145.701 190.287C145.701 189.25 145.06 188.528 144.07 188.528C143.08 188.528 142.475 189.262 142.475 190.287C142.475 191.311 143.08 192.033 144.07 192.033ZM152.212 187.41V188.726H151.688C150.663 188.726 150.023 189.273 150.023 190.391V193.186H148.602V187.445H149.941L150.023 188.283C150.267 187.713 150.815 187.329 151.583 187.329C151.781 187.329 151.979 187.352 152.212 187.41ZM152.643 190.298C152.643 188.505 153.936 187.27 155.717 187.27C157.499 187.27 158.792 188.505 158.792 190.298C158.792 192.092 157.499 193.326 155.717 193.326C153.936 193.326 152.643 192.092 152.643 190.298ZM154.064 190.298C154.064 191.346 154.739 192.057 155.717 192.057C156.696 192.057 157.371 191.346 157.371 190.298C157.371 189.25 156.696 188.54 155.717 188.54C154.739 188.54 154.064 189.25 154.064 190.298ZM159.918 195.853V187.433H161.234L161.327 188.307C161.676 187.643 162.433 187.259 163.307 187.259C164.926 187.259 165.997 188.435 165.997 190.24C165.997 192.033 165.019 193.338 163.307 193.338C162.445 193.338 161.7 193 161.339 192.418V195.853H159.918ZM161.35 190.31C161.35 191.346 161.991 192.057 162.969 192.057C163.971 192.057 164.565 191.335 164.565 190.31C164.565 189.285 163.971 188.551 162.969 188.551C161.991 188.551 161.35 189.273 161.35 190.31ZM174.285 193.186V188.621H171.932V193.186H170.523V188.621H169.696V187.433H170.523V186.735C170.523 185.174 171.339 184.522 172.503 184.522C172.724 184.522 172.992 184.534 173.237 184.58V185.791H172.736C172.095 185.791 171.932 186.164 171.932 186.735V187.433H175.706V193.186H174.285ZM174.995 186.257C174.518 186.257 174.145 185.884 174.145 185.407C174.145 184.941 174.518 184.569 174.995 184.569C175.461 184.569 175.834 184.941 175.834 185.407C175.834 185.884 175.461 186.257 174.995 186.257ZM178.603 193.186H177.194V184.522H178.603V193.186ZM182.667 193.338C180.955 193.338 179.755 192.092 179.755 190.31C179.755 188.505 180.932 187.259 182.62 187.259C184.344 187.259 185.438 188.412 185.438 190.205V190.636L181.106 190.648C181.211 191.661 181.747 192.173 182.69 192.173C183.47 192.173 183.983 191.87 184.146 191.323H185.462C185.217 192.581 184.169 193.338 182.667 193.338ZM182.632 188.423C181.793 188.423 181.281 188.877 181.141 189.739H184.029C184.029 188.947 183.482 188.423 182.632 188.423ZM186.133 191.439H187.484C187.496 191.94 187.868 192.255 188.52 192.255C189.184 192.255 189.545 191.987 189.545 191.568C189.545 191.276 189.394 191.067 188.881 190.95L187.845 190.706C186.808 190.473 186.308 189.984 186.308 189.064C186.308 187.934 187.263 187.259 188.59 187.259C189.883 187.259 190.756 188.004 190.768 189.122H189.417C189.405 188.633 189.079 188.318 188.532 188.318C187.973 188.318 187.647 188.575 187.647 189.005C187.647 189.332 187.903 189.541 188.392 189.658L189.429 189.902C190.395 190.123 190.884 190.566 190.884 191.451C190.884 192.616 189.895 193.338 188.474 193.338C187.041 193.338 186.133 192.569 186.133 191.439Z" fill="#414956"/>
<path d="M134.955 205.741C134.955 204.233 136.033 203.175 137.5 203.175C138.958 203.175 140.036 204.233 140.036 205.741C140.036 207.248 138.958 208.306 137.5 208.306C136.033 208.306 134.955 207.248 134.955 205.741ZM135.903 205.741C135.903 206.759 136.552 207.468 137.5 207.468C138.439 207.468 139.098 206.759 139.098 205.741C139.098 204.723 138.439 204.014 137.5 204.014C136.552 204.014 135.903 204.723 135.903 205.741ZM143.869 203.265V204.124H143.45C142.562 204.124 142.013 204.663 142.013 205.601V208.186H141.075V203.315H141.953L142.013 204.054C142.212 203.545 142.702 203.205 143.37 203.205C143.54 203.205 143.68 203.225 143.869 203.265Z" fill="#414956"/>
<g filter="url(#filter1_dd_341_19160)">
<path d="M98.5239 222.25C98.5239 220.367 100.05 218.841 101.933 218.841H176.733C178.616 218.841 180.143 220.367 180.143 222.25V243.741C180.143 245.624 178.616 247.15 176.733 247.15H101.933C100.05 247.15 98.5239 245.624 98.5239 243.741V222.25Z" fill="white" shape-rendering="crispEdges"/>
<path d="M98.9398 222.25C98.9398 220.597 100.28 219.257 101.933 219.257H176.733C178.386 219.257 179.727 220.597 179.727 222.25V243.741C179.727 245.394 178.386 246.734 176.733 246.734H101.933C100.28 246.734 98.9398 245.394 98.9398 243.741V222.25Z" stroke="#DADEE3" stroke-width="0.831832" shape-rendering="crispEdges"/>
<path d="M112.656 233.83V229.199H113.934V233.751C113.934 234.799 114.503 235.378 115.541 235.378C116.579 235.378 117.158 234.789 117.158 233.751V229.199H118.436V233.83C118.436 235.537 117.318 236.615 115.541 236.615C113.774 236.615 112.656 235.547 112.656 233.83ZM119.828 238.781V231.565H120.956L121.035 232.313C121.335 231.744 121.984 231.415 122.732 231.415C124.12 231.415 125.038 232.423 125.038 233.97C125.038 235.507 124.2 236.625 122.732 236.625C121.994 236.625 121.355 236.336 121.045 235.837V238.781H119.828ZM121.055 234.03C121.055 234.918 121.604 235.527 122.443 235.527C123.301 235.527 123.81 234.908 123.81 234.03C123.81 233.152 123.301 232.523 122.443 232.523C121.604 232.523 121.055 233.142 121.055 234.03ZM127.236 236.496H126.028V229.069H127.236V236.496ZM128.224 234.02C128.224 232.483 129.332 231.425 130.859 231.425C132.386 231.425 133.494 232.483 133.494 234.02C133.494 235.557 132.386 236.615 130.859 236.615C129.332 236.615 128.224 235.557 128.224 234.02ZM129.441 234.02C129.441 234.918 130.02 235.527 130.859 235.527C131.697 235.527 132.276 234.918 132.276 234.02C132.276 233.122 131.697 232.513 130.859 232.513C130.02 232.513 129.441 233.122 129.441 234.02ZM135.927 236.625C134.879 236.625 134.24 236.016 134.24 235.088C134.24 234.18 134.899 233.611 136.066 233.521L137.544 233.411V233.301C137.544 232.633 137.145 232.363 136.526 232.363C135.807 232.363 135.408 232.663 135.408 233.182H134.37C134.37 232.114 135.248 231.415 136.586 231.415C137.913 231.415 138.732 232.133 138.732 233.501V236.496H137.664L137.574 235.767C137.364 236.276 136.695 236.625 135.927 236.625ZM136.326 235.707C137.075 235.707 137.554 235.258 137.554 234.499V234.24L136.526 234.32C135.767 234.389 135.478 234.639 135.478 235.038C135.478 235.487 135.777 235.707 136.326 235.707ZM141.954 236.625C140.527 236.625 139.639 235.577 139.639 234.05C139.639 232.513 140.537 231.415 142.024 231.415C142.713 231.415 143.322 231.704 143.631 232.193V229.069H144.839V236.496H143.721L143.641 235.727C143.342 236.296 142.703 236.625 141.954 236.625ZM142.224 235.507C143.072 235.507 143.621 234.898 143.621 234.01C143.621 233.122 143.072 232.503 142.224 232.503C141.375 232.503 140.856 233.132 140.856 234.01C140.856 234.889 141.375 235.507 142.224 235.507ZM152.242 236.496V232.583H150.226V236.496H149.018V232.583H148.31V231.565H149.018V230.966C149.018 229.628 149.717 229.069 150.715 229.069C150.905 229.069 151.134 229.079 151.344 229.119V230.157H150.915C150.366 230.157 150.226 230.476 150.226 230.966V231.565H153.46V236.496H152.242ZM152.851 230.556C152.442 230.556 152.123 230.237 152.123 229.828C152.123 229.428 152.442 229.109 152.851 229.109C153.251 229.109 153.57 229.428 153.57 229.828C153.57 230.237 153.251 230.556 152.851 230.556ZM155.944 236.496H154.736V229.069H155.944V236.496ZM159.427 236.625C157.96 236.625 156.932 235.557 156.932 234.03C156.932 232.483 157.94 231.415 159.387 231.415C160.864 231.415 161.803 232.403 161.803 233.94V234.31L158.089 234.32C158.179 235.188 158.638 235.627 159.447 235.627C160.116 235.627 160.555 235.368 160.695 234.898H161.823C161.613 235.977 160.715 236.625 159.427 236.625ZM159.397 232.413C158.678 232.413 158.239 232.802 158.119 233.541H160.595C160.595 232.862 160.126 232.413 159.397 232.413ZM162.398 234.998H163.556C163.566 235.428 163.885 235.697 164.444 235.697C165.013 235.697 165.323 235.467 165.323 235.108C165.323 234.859 165.193 234.679 164.754 234.579L163.865 234.369C162.977 234.17 162.548 233.751 162.548 232.962C162.548 231.994 163.366 231.415 164.504 231.415C165.612 231.415 166.361 232.054 166.371 233.012H165.213C165.203 232.593 164.924 232.323 164.454 232.323C163.975 232.323 163.696 232.543 163.696 232.912C163.696 233.192 163.915 233.371 164.335 233.471L165.223 233.681C166.051 233.87 166.471 234.25 166.471 235.008C166.471 236.006 165.622 236.625 164.404 236.625C163.177 236.625 162.398 235.967 162.398 234.998Z" fill="#414956"/>
</g>
</g>
</g>
<defs>
<filter id="filter0_dd_341_19160" x="3.74464" y="12.0616" width="271.177" height="279.496" filterUnits="userSpaceOnUse" color-interpolation-filters="sRGB">
<feFlood flood-opacity="0" result="BackgroundImageFix"/>
<feColorMatrix in="SourceAlpha" type="matrix" values="0 0 0 0 0 0 0 0 0 0 0 0 0 0 0 0 0 0 127 0" result="hardAlpha"/>
<feOffset dy="3.32733"/>
<feGaussianBlur stdDeviation="3.32733"/>
<feComposite in2="hardAlpha" operator="out"/>
<feColorMatrix type="matrix" values="0 0 0 0 0 0 0 0 0 0 0 0 0 0 0 0 0 0 0.14 0"/>
<feBlend mode="normal" in2="BackgroundImageFix" result="effect1_dropShadow_341_19160"/>
<feColorMatrix in="SourceAlpha" type="matrix" values="0 0 0 0 0 0 0 0 0 0 0 0 0 0 0 0 0 0 127 0" result="hardAlpha"/>
<feOffset/>
<feGaussianBlur stdDeviation="0.831832"/>
<feComposite in2="hardAlpha" operator="out"/>
<feColorMatrix type="matrix" values="0 0 0 0 0 0 0 0 0 0 0 0 0 0 0 0 0 0 0.12 0"/>
<feBlend mode="normal" in2="effect1_dropShadow_341_19160" result="effect2_dropShadow_341_19160"/>
<feBlend mode="normal" in="SourceGraphic" in2="effect2_dropShadow_341_19160" result="shape"/>
</filter>
<filter id="filter1_dd_341_19160" x="96.5239" y="216.841" width="85.6187" height="33.3093" filterUnits="userSpaceOnUse" color-interpolation-filters="sRGB">
<feFlood flood-opacity="0" result="BackgroundImageFix"/>
<feColorMatrix in="SourceAlpha" type="matrix" values="0 0 0 0 0 0 0 0 0 0 0 0 0 0 0 0 0 0 127 0" result="hardAlpha"/>
<feOffset dy="1"/>
<feGaussianBlur stdDeviation="1"/>
<feComposite in2="hardAlpha" operator="out"/>
<feColorMatrix type="matrix" values="0 0 0 0 0 0 0 0 0 0 0 0 0 0 0 0 0 0 0.14 0"/>
<feBlend mode="normal" in2="BackgroundImageFix" result="effect1_dropShadow_341_19160"/>
<feColorMatrix in="SourceAlpha" type="matrix" values="0 0 0 0 0 0 0 0 0 0 0 0 0 0 0 0 0 0 127 0" result="hardAlpha"/>
<feOffset/>
<feGaussianBlur stdDeviation="1"/>
<feComposite in2="hardAlpha" operator="out"/>
<feColorMatrix type="matrix" values="0 0 0 0 0 0 0 0 0 0 0 0 0 0 0 0 0 0 0.12 0"/>
<feBlend mode="normal" in2="effect1_dropShadow_341_19160" result="effect2_dropShadow_341_19160"/>
<feBlend mode="normal" in="SourceGraphic" in2="effect2_dropShadow_341_19160" result="shape"/>
</filter>
<clipPath id="clip0_341_19160">
<rect x="10.3993" y="15.3889" width="257.868" height="266.186" rx="9.98198" fill="white"/>
</clipPath>
</defs>
</svg>
