<svg width="278" height="297" viewBox="0 0 278 297" fill="none" xmlns="http://www.w3.org/2000/svg">
<g filter="url(#filter0_dd_341_19130)">
<g clip-path="url(#clip0_341_19130)">
<mask id="path-2-inside-1_341_19130" fill="white">
<path d="M10.066 15.9266H267.934V52.8906H10.066V15.9266Z"/>
</mask>
<path d="M10.066 15.9266H267.934V52.8906H10.066V15.9266Z" fill="white"/>
<path d="M267.934 52.0588H10.066V53.7224H267.934V52.0588Z" fill="#DADEE3" mask="url(#path-2-inside-1_341_19130)"/>
<path d="M111.777 38.9086H110.659V30.4888H111.777L114.677 37.5693L117.577 30.4888H118.718V38.9086H117.6V35.5779C117.6 34.0058 117.612 33.4351 117.67 32.8412L115.213 38.9086H114.141L111.696 32.8645C111.754 33.2721 111.777 34.1339 111.777 35.3101V38.9086ZM119.945 41.459V40.5623H120.679C121.203 40.5623 121.622 40.4807 121.89 39.7587L122.088 39.2114L119.794 33.2138H120.947L122.6 37.8022L124.289 33.2138H125.419L122.728 40.1896C122.344 41.1678 121.773 41.5754 120.9 41.5754C120.539 41.5754 120.236 41.5288 119.945 41.459ZM132.936 35.904H130.804V38.9086H129.663V30.4888H132.936C134.589 30.4888 135.649 31.5718 135.649 33.1906C135.649 34.7627 134.578 35.904 132.936 35.904ZM132.738 31.5136H130.804V34.8792H132.691C133.821 34.8792 134.45 34.2154 134.45 33.1789C134.45 32.1192 133.809 31.5136 132.738 31.5136ZM136.121 36.0554C136.121 34.2969 137.379 33.0625 139.091 33.0625C140.791 33.0625 142.049 34.2969 142.049 36.0554C142.049 37.8139 140.791 39.0483 139.091 39.0483C137.379 39.0483 136.121 37.8139 136.121 36.0554ZM137.227 36.0554C137.227 37.2432 137.984 38.0701 139.091 38.0701C140.185 38.0701 140.954 37.2432 140.954 36.0554C140.954 34.8675 140.185 34.0407 139.091 34.0407C137.984 34.0407 137.227 34.8675 137.227 36.0554ZM144.379 38.9086H143.284V30.3374H144.379V38.9086ZM146.526 31.863C146.13 31.863 145.804 31.5369 145.804 31.1409C145.804 30.7333 146.13 30.4189 146.526 30.4189C146.922 30.4189 147.248 30.7333 147.248 31.1409C147.248 31.5369 146.922 31.863 146.526 31.863ZM145.99 38.9086V33.2138H147.085V38.9086H145.99ZM148.301 36.067C148.301 34.2852 149.431 33.0508 151.096 33.0508C152.529 33.0508 153.53 33.866 153.728 35.1354H152.634C152.447 34.4133 151.865 34.029 151.131 34.029C150.095 34.029 149.384 34.8209 149.384 36.0554C149.384 37.2782 150.048 38.0701 151.085 38.0701C151.865 38.0701 152.447 37.6625 152.645 36.987H153.74C153.519 38.2215 152.459 39.0483 151.085 39.0483C149.408 39.0483 148.301 37.8605 148.301 36.067ZM155.431 31.863C155.035 31.863 154.709 31.5369 154.709 31.1409C154.709 30.7333 155.035 30.4189 155.431 30.4189C155.827 30.4189 156.153 30.7333 156.153 31.1409C156.153 31.5369 155.827 31.863 155.431 31.863ZM154.895 38.9086V33.2138H155.99V38.9086H154.895ZM160.036 39.0483C158.359 39.0483 157.206 37.8372 157.206 36.067C157.206 34.2852 158.336 33.0508 159.989 33.0508C161.608 33.0508 162.668 34.1688 162.668 35.8574V36.265L158.266 36.2767C158.347 37.4762 158.976 38.14 160.059 38.14C160.909 38.14 161.468 37.7906 161.655 37.1384H162.68C162.4 38.3612 161.445 39.0483 160.036 39.0483ZM159.989 33.9708C159.035 33.9708 158.429 34.5415 158.289 35.543H161.573C161.573 34.5997 160.956 33.9708 159.989 33.9708ZM163.425 37.2549H164.473C164.473 37.8372 164.915 38.1865 165.638 38.1865C166.406 38.1865 166.849 37.8721 166.849 37.3481C166.849 36.9637 166.662 36.7308 166.068 36.5794L165.067 36.3465C164.054 36.102 163.576 35.6012 163.576 34.7627C163.576 33.7146 164.461 33.0508 165.719 33.0508C166.965 33.0508 167.78 33.7495 167.804 34.8326H166.755C166.732 34.262 166.348 33.9009 165.684 33.9009C164.997 33.9009 164.613 34.2037 164.613 34.7278C164.613 35.1121 164.892 35.3683 165.451 35.508L166.453 35.7526C167.419 35.9855 167.897 36.428 167.897 37.2782C167.897 38.3612 166.965 39.0483 165.614 39.0483C164.275 39.0483 163.425 38.3379 163.425 37.2549Z" fill="#414956"/>
<rect width="257.868" height="228.147" transform="translate(10.066 52.8906)" fill="white"/>
<path d="M28.6192 84.5272H26.849L30.3627 74.7981H32.1062L35.6199 84.5272H33.8231L33.0379 82.2779H29.4044L28.6192 84.5272ZM31.0149 77.6995L29.9102 80.8405H32.5454L31.4274 77.6995C31.3476 77.4467 31.2544 77.1539 31.2278 76.9542C31.1879 77.1406 31.108 77.4334 31.0149 77.6995ZM40.3402 84.5272H36.8399V74.7981H40.247C43.1219 74.7981 45.1049 76.7812 45.1049 79.6826C45.1049 82.5441 43.1618 84.5272 40.3402 84.5272ZM40.0873 76.3686H38.5435V82.9567H40.1805C42.1237 82.9567 43.3082 81.7056 43.3082 79.6826C43.3082 77.6197 42.097 76.3686 40.0873 76.3686ZM53.3465 84.5272L52.6944 83.7952C51.9224 84.3808 50.9375 84.7002 49.7663 84.7002C47.6501 84.7002 46.226 83.5823 46.226 81.9452C46.226 80.7607 46.998 79.7891 48.4886 79.0704C47.73 78.192 47.4372 77.5931 47.4372 76.8611C47.4372 75.5701 48.4886 74.6384 49.926 74.6384C51.3501 74.6384 52.335 75.5168 52.335 76.7812C52.335 77.7528 51.816 78.5247 50.6048 79.3366L52.5613 81.5326C52.7343 81.0668 52.8275 80.5078 52.8275 79.869H54.4113C54.4113 81.0003 54.1451 81.9718 53.6526 82.7438L55.2364 84.5272H53.3465ZM48.9811 76.8477C48.9811 77.3269 49.194 77.7262 49.8196 78.4449C50.4983 78.0456 50.8311 77.4999 50.8311 76.8344C50.8311 76.2621 50.485 75.9294 49.926 75.9294C49.3404 75.9294 48.9811 76.2754 48.9811 76.8477ZM47.9429 81.7855C47.9429 82.7305 48.7016 83.3028 49.9527 83.3028C50.6847 83.3028 51.2836 83.1031 51.7494 82.7305L49.2739 79.9488C48.3555 80.4679 47.9429 81.0269 47.9429 81.7855ZM59.9922 84.5272H56.4919V74.7981H59.8991C62.7739 74.7981 64.757 76.7812 64.757 79.6826C64.757 82.5441 62.8138 84.5272 59.9922 84.5272ZM59.7394 76.3686H58.1955V82.9567H59.8325C61.7757 82.9567 62.9602 81.7056 62.9602 79.6826C62.9602 77.6197 61.7491 76.3686 59.7394 76.3686ZM71.6348 74.7981V84.5272H69.9312V74.7981H71.6348ZM75.1756 84.5272H73.5518V77.9524H75.0558L75.1889 78.8042C75.6015 78.1388 76.4 77.7528 77.2917 77.7528C78.9421 77.7528 79.7939 78.7776 79.7939 80.4812V84.5272H78.1702V80.8672C78.1702 79.7625 77.6245 79.2301 76.786 79.2301C75.7878 79.2301 75.1756 79.9222 75.1756 80.9869V84.5272ZM80.8055 82.5308H82.3494C82.3627 83.1031 82.7886 83.4625 83.5339 83.4625C84.2925 83.4625 84.7051 83.1564 84.7051 82.6772C84.7051 82.3445 84.5321 82.1049 83.9465 81.9718L82.762 81.6923C81.5774 81.4262 81.0051 80.8672 81.0051 79.8157C81.0051 78.5247 82.0965 77.7528 83.6138 77.7528C85.0911 77.7528 86.0893 78.6046 86.1026 79.8823H84.5587C84.5454 79.3233 84.1728 78.9639 83.5472 78.9639C82.9084 78.9639 82.5357 79.2567 82.5357 79.7492C82.5357 80.1218 82.8285 80.3614 83.3875 80.4945L84.572 80.774C85.6767 81.0269 86.2357 81.5326 86.2357 82.5441C86.2357 83.8751 85.1044 84.7002 83.4807 84.7002C81.8436 84.7002 80.8055 83.8218 80.8055 82.5308ZM91.9306 77.9524H93.5544V84.5272H92.0504L91.9306 83.6488C91.5314 84.2743 90.6796 84.7002 89.8011 84.7002C88.2839 84.7002 87.3922 83.6754 87.3922 82.065V77.9524H89.0159V81.4927C89.0159 82.7438 89.5083 83.2495 90.4134 83.2495C91.4382 83.2495 91.9306 82.6506 91.9306 81.3995V77.9524ZM99.3573 77.9258V79.4298H98.7584C97.5872 79.4298 96.8552 80.0553 96.8552 81.333V84.5272H95.2314V77.9657H96.762L96.8552 78.924C97.1347 78.2718 97.7602 77.8326 98.6386 77.8326C98.8649 77.8326 99.0911 77.8593 99.3573 77.9258ZM102.153 84.7002C100.755 84.7002 99.9036 83.8884 99.9036 82.6506C99.9036 81.4395 100.782 80.6808 102.339 80.561L104.309 80.4146V80.2682C104.309 79.3765 103.777 79.0172 102.951 79.0172C101.993 79.0172 101.461 79.4164 101.461 80.1085H100.077C100.077 78.6844 101.248 77.7528 103.031 77.7528C104.801 77.7528 105.893 78.7111 105.893 80.5344V84.5272H104.469L104.349 83.5556C104.069 84.2344 103.178 84.7002 102.153 84.7002ZM102.685 83.4758C103.683 83.4758 104.322 82.8769 104.322 81.8654V81.5193L102.951 81.6258C101.94 81.719 101.554 82.0517 101.554 82.5841C101.554 83.183 101.953 83.4758 102.685 83.4758ZM109.112 84.5272H107.488V77.9524H108.992L109.125 78.8042C109.538 78.1388 110.336 77.7528 111.228 77.7528C112.878 77.7528 113.73 78.7776 113.73 80.4812V84.5272H112.106V80.8672C112.106 79.7625 111.561 79.2301 110.722 79.2301C109.724 79.2301 109.112 79.9222 109.112 80.9869V84.5272ZM114.939 81.2265C114.939 79.1902 116.284 77.7528 118.227 77.7528C120.024 77.7528 121.248 78.751 121.421 80.3348H119.797C119.611 79.5895 119.065 79.2035 118.293 79.2035C117.255 79.2035 116.563 79.9887 116.563 81.2265C116.563 82.4643 117.202 83.2362 118.24 83.2362C119.052 83.2362 119.624 82.8369 119.797 82.1182H121.434C121.235 83.6488 119.957 84.7002 118.24 84.7002C116.244 84.7002 114.939 83.3161 114.939 81.2265ZM125.584 84.7002C123.628 84.7002 122.257 83.2761 122.257 81.2398C122.257 79.1769 123.601 77.7528 125.531 77.7528C127.501 77.7528 128.752 79.0704 128.752 81.12V81.6125L123.801 81.6258C123.921 82.7837 124.533 83.3693 125.611 83.3693C126.503 83.3693 127.088 83.0233 127.275 82.3977H128.779C128.499 83.8351 127.301 84.7002 125.584 84.7002ZM125.544 79.0837C124.586 79.0837 124 79.6028 123.841 80.5877H127.141C127.141 79.6826 126.516 79.0837 125.544 79.0837Z" fill="#414956"/>
<path d="M216.643 79.5272C216.643 83.2025 213.663 86.1819 209.988 86.1819C206.313 86.1819 203.333 83.2025 203.333 79.5272C203.333 75.8519 206.313 72.8726 209.988 72.8726C213.663 72.8726 216.643 75.8519 216.643 79.5272Z" fill="#68C78E"/>
<path fill-rule="evenodd" clip-rule="evenodd" d="M212.885 77.2955C213.015 77.4254 213.015 77.6361 212.885 77.766L209.225 81.4261C209.095 81.556 208.884 81.556 208.754 81.4261L207.091 79.7624C206.961 79.6325 206.961 79.4218 207.091 79.2919C207.221 79.1619 207.431 79.1619 207.561 79.2919L208.99 80.7202L212.414 77.2955C212.544 77.1655 212.755 77.1655 212.885 77.2955Z" fill="white"/>
<path d="M224.435 83.0272H223.417L226.052 75.8102H227.14L229.786 83.0272H228.757L228.109 81.2305H225.074L224.435 83.0272ZM226.472 77.3674L225.373 80.382H227.819L226.711 77.3674C226.661 77.2277 226.611 77.058 226.591 76.9482C226.571 77.048 226.521 77.2177 226.472 77.3674ZM230.081 80.5916C230.081 79.0644 231.049 78.0063 232.476 78.0063C233.704 78.0063 234.562 78.705 234.732 79.7931H233.794C233.634 79.1742 233.135 78.8448 232.506 78.8448C231.618 78.8448 231.009 79.5235 231.009 80.5816C231.009 81.6297 231.578 82.3085 232.466 82.3085C233.135 82.3085 233.634 81.9591 233.804 81.3802H234.742C234.552 82.4383 233.644 83.147 232.466 83.147C231.029 83.147 230.081 82.1288 230.081 80.5916ZM237.11 83.0272H236.171V78.9346H235.213V78.146H236.171V76.6188H237.11V78.146H238.068V78.9346H237.11V83.0272ZM239.369 76.9881C239.03 76.9881 238.75 76.7086 238.75 76.3692C238.75 76.0199 239.03 75.7504 239.369 75.7504C239.709 75.7504 239.988 76.0199 239.988 76.3692C239.988 76.7086 239.709 76.9881 239.369 76.9881ZM238.91 83.0272V78.146H239.848V83.0272H238.91ZM242.578 83.0272L240.612 78.146H241.61L242.678 80.8711C242.848 81.3303 242.987 81.7395 243.067 82.039C243.147 81.7196 243.307 81.3003 243.476 80.8711L244.564 78.146H245.543L243.506 83.0272H242.578ZM248.171 83.147C246.734 83.147 245.746 82.1089 245.746 80.5916C245.746 79.0644 246.714 78.0063 248.131 78.0063C249.519 78.0063 250.427 78.9646 250.427 80.4119V80.7613L246.654 80.7713C246.724 81.7994 247.263 82.3684 248.191 82.3684C248.92 82.3684 249.399 82.069 249.559 81.51H250.437C250.198 82.5581 249.379 83.147 248.171 83.147ZM248.131 78.7949C247.313 78.7949 246.794 79.284 246.674 80.1424H249.489C249.489 79.3339 248.96 78.7949 248.131 78.7949Z" fill="#414956"/>
<rect x="26.8842" y="106.345" width="224.232" height="0.363101" stroke="#DADEE3" stroke-width="0.363101"/>
<path d="M30.9533 133.522H28.8221V136.527H27.6809V128.107H30.9533C32.607 128.107 33.6667 129.19 33.6667 130.809C33.6667 132.381 32.5953 133.522 30.9533 133.522ZM30.7553 129.132H28.8221V132.497H30.7087C31.8384 132.497 32.4672 131.834 32.4672 130.797C32.4672 129.737 31.8267 129.132 30.7553 129.132ZM34.1388 133.674C34.1388 131.915 35.3966 130.681 37.1085 130.681C38.8087 130.681 40.0665 131.915 40.0665 133.674C40.0665 135.432 38.8087 136.666 37.1085 136.666C35.3966 136.666 34.1388 135.432 34.1388 133.674ZM35.2452 133.674C35.2452 134.861 36.0021 135.688 37.1085 135.688C38.2032 135.688 38.9718 134.861 38.9718 133.674C38.9718 132.486 38.2032 131.659 37.1085 131.659C36.0021 131.659 35.2452 132.486 35.2452 133.674ZM42.3962 136.527H41.3015V127.956H42.3962V136.527ZM44.5434 129.481C44.1475 129.481 43.8214 129.155 43.8214 128.759C43.8214 128.351 44.1475 128.037 44.5434 128.037C44.9394 128.037 45.2654 128.351 45.2654 128.759C45.2654 129.155 44.9394 129.481 44.5434 129.481ZM44.0077 136.527V130.832H45.1024V136.527H44.0077ZM46.319 133.685C46.319 131.903 47.4486 130.669 49.114 130.669C50.5464 130.669 51.5479 131.484 51.7459 132.754H50.6512C50.4649 132.032 49.8826 131.647 49.1489 131.647C48.1124 131.647 47.402 132.439 47.402 133.674C47.402 134.896 48.0658 135.688 49.1023 135.688C49.8826 135.688 50.4649 135.281 50.6628 134.605H51.7575C51.5363 135.84 50.4765 136.666 49.1023 136.666C47.4253 136.666 46.319 135.479 46.319 133.685ZM52.2515 139.077V138.18H52.9851C53.5092 138.18 53.9284 138.099 54.1963 137.377L54.3943 136.83L52.1001 130.832H53.253L54.9067 135.42L56.5953 130.832H57.7249L55.0348 137.808C54.6505 138.786 54.0798 139.194 53.2064 139.194C52.8454 139.194 52.5426 139.147 52.2515 139.077ZM62.8779 136.527H61.7832V130.832H62.7731L62.8896 131.705C63.2506 131.053 63.9726 130.669 64.7762 130.669C66.2785 130.669 66.9656 131.589 66.9656 133.045V136.527H65.8709V133.289C65.8709 132.136 65.3352 131.67 64.4967 131.67C63.4719 131.67 62.8779 132.404 62.8779 133.511V136.527ZM72.418 130.832H73.501V136.527H72.5228L72.4063 135.665C72.0803 136.259 71.3233 136.666 70.4848 136.666C69.1572 136.666 68.4119 135.77 68.4119 134.372V130.832H69.5066V134.011C69.5066 135.234 70.0306 135.7 70.8691 135.7C71.8706 135.7 72.418 135.059 72.418 133.837V130.832ZM76.184 136.527H75.0893V130.832H76.0675L76.1723 131.577C76.4635 131.042 77.0691 130.669 77.8726 130.669C78.7577 130.669 79.3865 131.112 79.6777 131.822C79.9455 131.112 80.6326 130.669 81.5177 130.669C82.822 130.669 83.6139 131.484 83.6139 132.8V136.527H82.5425V133.068C82.5425 132.171 82.0417 131.659 81.2731 131.659C80.4463 131.659 79.899 132.241 79.899 133.149V136.527H78.8159V133.056C78.8159 132.16 78.3268 131.67 77.5582 131.67C76.7313 131.67 76.184 132.241 76.184 133.149V136.527ZM86.1213 136.527H85.1314V127.956H86.2261V131.81C86.5987 131.065 87.3674 130.669 88.299 130.669C89.9294 130.669 90.9076 131.95 90.9076 133.708C90.9076 135.432 89.8828 136.666 88.2291 136.666C87.3324 136.666 86.5755 136.271 86.2028 135.49L86.1213 136.527ZM86.2377 133.662C86.2377 134.85 86.9132 135.677 88.0312 135.677C89.1491 135.677 89.8129 134.838 89.8129 133.662C89.8129 132.497 89.1491 131.659 88.0312 131.659C86.9132 131.659 86.2377 132.497 86.2377 133.662ZM94.5715 136.666C92.8945 136.666 91.7416 135.455 91.7416 133.685C91.7416 131.903 92.8712 130.669 94.5249 130.669C96.1436 130.669 97.2034 131.787 97.2034 133.476V133.883L92.8013 133.895C92.8829 135.094 93.5117 135.758 94.5948 135.758C95.4449 135.758 96.0039 135.409 96.1902 134.757H97.215C96.9355 135.979 95.9806 136.666 94.5715 136.666ZM94.5249 131.589C93.5699 131.589 92.9644 132.16 92.8246 133.161H96.1087C96.1087 132.218 95.4915 131.589 94.5249 131.589ZM101.687 130.785V131.787H101.198C100.161 131.787 99.5208 132.416 99.5208 133.511V136.527H98.4261V130.844H99.4509L99.5208 131.705C99.7537 131.112 100.324 130.716 101.105 130.716C101.303 130.716 101.466 130.739 101.687 130.785Z" fill="#414956"/>
<rect x="165.143" y="129.848" width="86.154" height="4.35721" rx="2.17861" fill="#DADEE3"/>
<path d="M30.9533 160.504H28.8221V163.509H27.6809V155.089H30.9533C32.607 155.089 33.6667 156.172 33.6667 157.791C33.6667 159.363 32.5953 160.504 30.9533 160.504ZM30.7553 156.114H28.8221V159.479H30.7087C31.8384 159.479 32.4672 158.815 32.4672 157.779C32.4672 156.719 31.8267 156.114 30.7553 156.114ZM34.1388 160.655C34.1388 158.897 35.3966 157.663 37.1085 157.663C38.8087 157.663 40.0665 158.897 40.0665 160.655C40.0665 162.414 38.8087 163.648 37.1085 163.648C35.3966 163.648 34.1388 162.414 34.1388 160.655ZM35.2452 160.655C35.2452 161.843 36.0021 162.67 37.1085 162.67C38.2032 162.67 38.9718 161.843 38.9718 160.655C38.9718 159.468 38.2032 158.641 37.1085 158.641C36.0021 158.641 35.2452 159.468 35.2452 160.655ZM42.3962 163.509H41.3015V154.937H42.3962V163.509ZM44.5434 156.463C44.1475 156.463 43.8214 156.137 43.8214 155.741C43.8214 155.333 44.1475 155.019 44.5434 155.019C44.9394 155.019 45.2654 155.333 45.2654 155.741C45.2654 156.137 44.9394 156.463 44.5434 156.463ZM44.0077 163.509V157.814H45.1024V163.509H44.0077ZM46.319 160.667C46.319 158.885 47.4486 157.651 49.114 157.651C50.5464 157.651 51.5479 158.466 51.7459 159.735H50.6512C50.4649 159.013 49.8826 158.629 49.1489 158.629C48.1124 158.629 47.402 159.421 47.402 160.655C47.402 161.878 48.0658 162.67 49.1023 162.67C49.8826 162.67 50.4649 162.263 50.6628 161.587H51.7575C51.5363 162.822 50.4765 163.648 49.1023 163.648C47.4253 163.648 46.319 162.461 46.319 160.667ZM52.2515 166.059V165.162H52.9851C53.5092 165.162 53.9284 165.081 54.1963 164.359L54.3943 163.811L52.1001 157.814H53.253L54.9067 162.402L56.5953 157.814H57.7249L55.0348 164.79C54.6505 165.768 54.0798 166.176 53.2064 166.176C52.8454 166.176 52.5426 166.129 52.2515 166.059ZM63.3903 163.509H62.2956V158.734H61.1777V157.814H62.2956V156.032H63.3903V157.814H64.5083V158.734H63.3903V163.509ZM67.8911 163.648C66.2141 163.648 65.0612 162.437 65.0612 160.667C65.0612 158.885 66.1908 157.651 67.8445 157.651C69.4633 157.651 70.523 158.769 70.523 160.458V160.865L66.121 160.877C66.2025 162.076 66.8314 162.74 67.9144 162.74C68.7645 162.74 69.3235 162.391 69.5099 161.739H70.5347C70.2552 162.961 69.3002 163.648 67.8911 163.648ZM67.8445 158.571C66.8896 158.571 66.284 159.142 66.1443 160.143H69.4283C69.4283 159.2 68.8111 158.571 67.8445 158.571ZM75.0065 157.767V158.769H74.5174C73.4809 158.769 72.8404 159.398 72.8404 160.492V163.509H71.7457V157.826H72.7705L72.8404 158.687C73.0733 158.093 73.644 157.697 74.4242 157.697C74.6222 157.697 74.7852 157.721 75.0065 157.767ZM77.1279 163.509H76.0332V157.814H77.0115L77.1163 158.559C77.4074 158.024 78.013 157.651 78.8165 157.651C79.7016 157.651 80.3305 158.093 80.6216 158.804C80.8895 158.093 81.5766 157.651 82.4616 157.651C83.7659 157.651 84.5578 158.466 84.5578 159.782V163.509H83.4864V160.05C83.4864 159.153 82.9857 158.641 82.2171 158.641C81.3902 158.641 80.8429 159.223 80.8429 160.131V163.509H79.7598V160.038C79.7598 159.142 79.2707 158.652 78.5021 158.652C77.6753 158.652 77.1279 159.223 77.1279 160.131V163.509Z" fill="#414956"/>
<rect x="203.051" y="156.829" width="48.2462" height="4.3588" rx="2.1794" fill="#DADEE3"/>
<path d="M30.9533 187.486H28.8221V190.491H27.6809V182.071H30.9533C32.607 182.071 33.6667 183.154 33.6667 184.773C33.6667 186.345 32.5953 187.486 30.9533 187.486ZM30.7553 183.096H28.8221V186.461H30.7087C31.8384 186.461 32.4672 185.798 32.4672 184.761C32.4672 183.701 31.8267 183.096 30.7553 183.096ZM36.2109 190.63C34.9882 190.63 34.2661 189.943 34.2661 188.907C34.2661 187.859 35.0464 187.207 36.3856 187.102L38.1791 186.962V186.799C38.1791 185.844 37.6084 185.506 36.8398 185.506C35.9198 185.506 35.3957 185.914 35.3957 186.601H34.4408C34.4408 185.413 35.419 184.633 36.8864 184.633C38.2955 184.633 39.2505 185.378 39.2505 186.916V190.491H38.3188L38.2023 189.571C37.9112 190.223 37.131 190.63 36.2109 190.63ZM36.5254 189.78C37.5618 189.78 38.1907 189.105 38.1907 188.033V187.731L36.735 187.847C35.7684 187.94 35.3725 188.313 35.3725 188.872C35.3725 189.478 35.815 189.78 36.5254 189.78ZM40.0827 193.041V192.144H40.8163C41.3404 192.144 41.7596 192.063 42.0275 191.341L42.2255 190.794L39.9313 184.796H41.0842L42.7379 189.384L44.4265 184.796H45.5561L42.866 191.772C42.4817 192.75 41.911 193.158 41.0376 193.158C40.6766 193.158 40.3738 193.111 40.0827 193.041ZM47.5248 190.491H46.4301V184.796H47.4083L47.5131 185.541C47.8043 185.006 48.4098 184.633 49.2134 184.633C50.0985 184.633 50.7273 185.075 51.0185 185.786C51.2863 185.075 51.9734 184.633 52.8585 184.633C54.1628 184.633 54.9547 185.448 54.9547 186.764V190.491H53.8833V187.032C53.8833 186.135 53.3825 185.623 52.6139 185.623C51.7871 185.623 51.2397 186.205 51.2397 187.113V190.491H50.1567V187.02C50.1567 186.124 49.6676 185.634 48.899 185.634C48.0721 185.634 47.5248 186.205 47.5248 187.113V190.491ZM58.9294 190.63C57.2524 190.63 56.0995 189.419 56.0995 187.649C56.0995 185.867 57.2292 184.633 58.8828 184.633C60.5016 184.633 61.5613 185.751 61.5613 187.44V187.847L57.1593 187.859C57.2408 189.058 57.8697 189.722 58.9527 189.722C59.8028 189.722 60.3618 189.373 60.5482 188.721H61.573C61.2935 189.943 60.3385 190.63 58.9294 190.63ZM58.8828 185.553C57.9279 185.553 57.3223 186.124 57.1826 187.125H60.4666C60.4666 186.182 59.8494 185.553 58.8828 185.553ZM63.8787 190.491H62.784V184.796H63.7739L63.8904 185.669C64.2514 185.017 64.9734 184.633 65.777 184.633C67.2793 184.633 67.9663 185.553 67.9663 187.009V190.491H66.8717V187.253C66.8717 186.1 66.336 185.634 65.4975 185.634C64.4727 185.634 63.8787 186.368 63.8787 187.475V190.491ZM71.0897 190.491H69.995V185.716H68.877V184.796H69.995V183.014H71.0897V184.796H72.2076V185.716H71.0897V190.491ZM77.4691 190.491H76.3744V184.796H77.3527L77.4575 185.541C77.7486 185.006 78.3542 184.633 79.1577 184.633C80.0428 184.633 80.6717 185.075 80.9628 185.786C81.2307 185.075 81.9177 184.633 82.8028 184.633C84.1071 184.633 84.899 185.448 84.899 186.764V190.491H83.8276V187.032C83.8276 186.135 83.3269 185.623 82.5583 185.623C81.7314 185.623 81.1841 186.205 81.1841 187.113V190.491H80.101V187.02C80.101 186.124 79.6119 185.634 78.8433 185.634C78.0165 185.634 77.4691 186.205 77.4691 187.113V190.491ZM88.8737 190.63C87.1968 190.63 86.0439 189.419 86.0439 187.649C86.0439 185.867 87.1735 184.633 88.8272 184.633C90.4459 184.633 91.5057 185.751 91.5057 187.44V187.847L87.1036 187.859C87.1851 189.058 87.814 189.722 88.897 189.722C89.7472 189.722 90.3062 189.373 90.4925 188.721H91.5173C91.2378 189.943 90.2829 190.63 88.8737 190.63ZM88.8272 185.553C87.8722 185.553 87.2666 186.124 87.1269 187.125H90.411C90.411 186.182 89.7937 185.553 88.8272 185.553ZM94.2786 190.491H93.1839V185.716H92.0659V184.796H93.1839V183.014H94.2786V184.796H95.3966V185.716H94.2786V190.491ZM97.4737 190.479H96.379V181.92H97.4737V185.669C97.8347 185.052 98.5218 184.633 99.4069 184.633C100.863 184.633 101.561 185.553 101.561 187.009V190.491H100.467V187.253C100.467 186.1 99.9193 185.634 99.1041 185.634C98.0443 185.634 97.4737 186.403 97.4737 187.381V190.479ZM102.705 187.638C102.705 185.879 103.963 184.645 105.674 184.645C107.375 184.645 108.632 185.879 108.632 187.638C108.632 189.396 107.375 190.63 105.674 190.63C103.963 190.63 102.705 189.396 102.705 187.638ZM103.811 187.638C103.811 188.825 104.568 189.652 105.674 189.652C106.769 189.652 107.538 188.825 107.538 187.638C107.538 186.45 106.769 185.623 105.674 185.623C104.568 185.623 103.811 186.45 103.811 187.638ZM112.127 190.63C110.473 190.63 109.472 189.396 109.472 187.661C109.472 185.914 110.485 184.633 112.173 184.633C113.047 184.633 113.781 185.017 114.165 185.716V181.92H115.248V190.491H114.27L114.176 189.454C113.804 190.235 113.035 190.63 112.127 190.63ZM112.348 189.641C113.466 189.641 114.153 188.814 114.153 187.626C114.153 186.461 113.466 185.623 112.348 185.623C111.23 185.623 110.578 186.461 110.578 187.626C110.578 188.802 111.23 189.641 112.348 189.641Z" fill="#414956"/>
<rect x="168.989" y="183.811" width="82.3081" height="4.3588" rx="2.1794" fill="#DADEE3"/>
<g filter="url(#filter1_dd_341_19130)">
<path d="M26.7026 221.191C26.7026 219.308 28.229 217.782 30.1119 217.782H247.888C249.771 217.782 251.297 219.308 251.297 221.191V260.991C251.297 262.874 249.771 264.4 247.888 264.4H30.1119C28.229 264.4 26.7026 262.874 26.7026 260.991V221.191Z" fill="white" shape-rendering="crispEdges"/>
<path d="M27.1186 221.191C27.1186 219.538 28.4587 218.198 30.1119 218.198H247.888C249.541 218.198 250.881 219.538 250.881 221.191V260.991C250.881 262.644 249.541 263.985 247.888 263.985H30.1119C28.4587 263.985 27.1186 262.644 27.1186 260.991V221.191Z" stroke="#DADEE3" stroke-width="0.831832" shape-rendering="crispEdges"/>
<path d="M62.554 247.091L58.4214 236.146H60.4577L62.8534 242.45C63.093 243.108 63.3026 243.752 63.5422 244.636C63.8117 243.677 64.0363 243.004 64.2459 242.45L66.6116 236.146H68.603L64.5304 247.091H62.554ZM70.6123 238.212C69.9835 238.212 69.4894 237.718 69.4894 237.104C69.4894 236.49 69.9835 236.011 70.6123 236.011C71.2113 236.011 71.7054 236.49 71.7054 237.104C71.7054 237.718 71.2113 238.212 70.6123 238.212ZM69.699 247.091V239.695H71.5257V247.091H69.699ZM76.722 247.286C74.521 247.286 72.9788 245.684 72.9788 243.393C72.9788 241.072 74.491 239.47 76.6621 239.47C78.8781 239.47 80.2856 240.952 80.2856 243.258V243.812L74.7156 243.827C74.8504 245.13 75.5391 245.789 76.752 245.789C77.7551 245.789 78.414 245.399 78.6236 244.696H80.3155C80.0011 246.313 78.6535 247.286 76.722 247.286ZM76.6771 240.967C75.599 240.967 74.9402 241.551 74.7606 242.659H78.4739C78.4739 241.641 77.7701 240.967 76.6771 240.967ZM83.0579 247.091L80.6622 239.695H82.5638L83.5371 242.869C83.7018 243.453 83.8515 244.097 83.9862 244.785C84.121 244.067 84.2558 243.602 84.4953 242.869L85.5135 239.695H87.3701L88.3584 242.869C88.4482 243.168 88.7477 244.276 88.8375 244.77C88.9573 244.216 89.1968 243.333 89.3316 242.869L90.3198 239.695H92.2513L89.691 247.091H87.984L86.9659 243.887C86.6664 242.914 86.5017 242.21 86.4418 241.836C86.3669 242.18 86.2322 242.704 85.8579 243.917L84.8397 247.091H83.0579ZM97.3931 250.52V239.695H99.0851L99.2049 240.818C99.6541 239.964 100.627 239.47 101.75 239.47C103.832 239.47 105.209 240.982 105.209 243.303C105.209 245.609 103.951 247.286 101.75 247.286C100.642 247.286 99.684 246.852 99.2198 246.103V250.52H97.3931ZM99.2348 243.393C99.2348 244.725 100.058 245.639 101.316 245.639C102.604 245.639 103.367 244.71 103.367 243.393C103.367 242.075 102.604 241.132 101.316 241.132C100.058 241.132 99.2348 242.06 99.2348 243.393ZM106.229 243.378C106.229 241.072 107.891 239.485 110.182 239.485C112.473 239.485 114.135 241.072 114.135 243.378C114.135 245.684 112.473 247.271 110.182 247.271C107.891 247.271 106.229 245.684 106.229 243.378ZM108.056 243.378C108.056 244.725 108.924 245.639 110.182 245.639C111.44 245.639 112.308 244.725 112.308 243.378C112.308 242.03 111.44 241.117 110.182 241.117C108.924 241.117 108.056 242.03 108.056 243.378ZM117.425 247.091H115.613V235.951H117.425V247.091ZM120.254 238.212C119.625 238.212 119.131 237.718 119.131 237.104C119.131 236.49 119.625 236.011 120.254 236.011C120.853 236.011 121.347 236.49 121.347 237.104C121.347 237.718 120.853 238.212 120.254 238.212ZM119.341 247.091V239.695H121.168V247.091H119.341ZM122.621 243.378C122.621 241.087 124.133 239.47 126.319 239.47C128.34 239.47 129.718 240.593 129.912 242.375H128.086C127.876 241.536 127.262 241.102 126.394 241.102C125.226 241.102 124.447 241.985 124.447 243.378C124.447 244.77 125.166 245.639 126.334 245.639C127.247 245.639 127.891 245.19 128.086 244.381H129.927C129.703 246.103 128.265 247.286 126.334 247.286C124.088 247.286 122.621 245.729 122.621 243.378ZM130.497 250.52V248.993H131.59C132.309 248.993 132.758 248.828 133.072 247.96L133.282 247.406L130.302 239.695H132.234L134.135 245.085L136.142 239.695H138.028L134.405 248.738C133.851 250.116 133.072 250.685 131.86 250.685C131.35 250.685 130.901 250.625 130.497 250.52ZM146.141 247.286C144 247.286 142.667 245.714 142.667 243.423C142.667 241.117 144.015 239.47 146.246 239.47C147.279 239.47 148.192 239.904 148.657 240.638V235.951H150.468V247.091H148.791L148.672 245.938C148.222 246.792 147.264 247.286 146.141 247.286ZM146.545 245.609C147.818 245.609 148.642 244.696 148.642 243.363C148.642 242.03 147.818 241.102 146.545 241.102C145.273 241.102 144.494 242.045 144.494 243.363C144.494 244.681 145.273 245.609 146.545 245.609ZM151.938 243.378C151.938 241.072 153.6 239.485 155.891 239.485C158.182 239.485 159.844 241.072 159.844 243.378C159.844 245.684 158.182 247.271 155.891 247.271C153.6 247.271 151.938 245.684 151.938 243.378ZM153.765 243.378C153.765 244.725 154.633 245.639 155.891 245.639C157.148 245.639 158.017 244.725 158.017 243.378C158.017 242.03 157.148 241.117 155.891 241.117C154.633 241.117 153.765 242.03 153.765 243.378ZM160.857 243.378C160.857 241.087 162.37 239.47 164.556 239.47C166.577 239.47 167.954 240.593 168.149 242.375H166.322C166.113 241.536 165.499 241.102 164.63 241.102C163.463 241.102 162.684 241.985 162.684 243.378C162.684 244.77 163.403 245.639 164.571 245.639C165.484 245.639 166.128 245.19 166.322 244.381H168.164C167.939 246.103 166.502 247.286 164.571 247.286C162.325 247.286 160.857 245.729 160.857 243.378ZM174.54 239.695H176.366V247.091H174.674L174.54 246.103C174.09 246.807 173.132 247.286 172.144 247.286C170.437 247.286 169.434 246.133 169.434 244.321V239.695H171.261V243.677C171.261 245.085 171.815 245.654 172.833 245.654C173.986 245.654 174.54 244.98 174.54 243.573V239.695ZM180.08 247.091H178.253V239.695H179.93L180.08 240.563C180.454 239.949 181.203 239.47 182.266 239.47C183.389 239.47 184.167 240.024 184.557 240.877C184.931 240.024 185.799 239.47 186.922 239.47C188.719 239.47 189.707 240.548 189.707 242.255V247.091H187.896V242.734C187.896 241.671 187.327 241.117 186.458 241.117C185.575 241.117 184.901 241.686 184.901 242.899V247.091H183.074V242.719C183.074 241.686 182.52 241.132 181.652 241.132C180.783 241.132 180.08 241.701 180.08 242.899V247.091ZM194.81 247.286C192.609 247.286 191.066 245.684 191.066 243.393C191.066 241.072 192.579 239.47 194.75 239.47C196.966 239.47 198.373 240.952 198.373 243.258V243.812L192.803 243.827C192.938 245.13 193.627 245.789 194.84 245.789C195.843 245.789 196.502 245.399 196.711 244.696H198.403C198.089 246.313 196.741 247.286 194.81 247.286ZM194.765 240.967C193.687 240.967 193.028 241.551 192.848 242.659H196.561C196.561 241.641 195.858 240.967 194.765 240.967ZM201.662 247.091H199.835V239.695H201.527L201.677 240.653C202.141 239.904 203.039 239.47 204.043 239.47C205.899 239.47 206.858 240.623 206.858 242.539V247.091H205.031V242.974C205.031 241.731 204.417 241.132 203.474 241.132C202.351 241.132 201.662 241.911 201.662 243.108V247.091ZM211.168 247.091H209.341V241.222H207.919V239.695H209.341V237.389H211.168V239.695H212.605V241.222H211.168V247.091ZM213.172 244.845H214.909C214.924 245.489 215.403 245.893 216.241 245.893C217.095 245.893 217.559 245.549 217.559 245.01C217.559 244.636 217.364 244.366 216.705 244.216L215.373 243.902C214.04 243.602 213.396 242.974 213.396 241.791C213.396 240.338 214.624 239.47 216.331 239.47C217.993 239.47 219.116 240.428 219.131 241.866H217.394C217.379 241.237 216.96 240.832 216.256 240.832C215.538 240.832 215.118 241.162 215.118 241.716C215.118 242.135 215.448 242.405 216.077 242.554L217.409 242.869C218.652 243.153 219.281 243.722 219.281 244.86C219.281 246.358 218.008 247.286 216.181 247.286C214.34 247.286 213.172 246.298 213.172 244.845Z" fill="#414956"/>
</g>
</g>
</g>
<defs>
<filter id="filter0_dd_341_19130" x="3.41138" y="12.5993" width="271.177" height="278.42" filterUnits="userSpaceOnUse" color-interpolation-filters="sRGB">
<feFlood flood-opacity="0" result="BackgroundImageFix"/>
<feColorMatrix in="SourceAlpha" type="matrix" values="0 0 0 0 0 0 0 0 0 0 0 0 0 0 0 0 0 0 127 0" result="hardAlpha"/>
<feOffset dy="3.32733"/>
<feGaussianBlur stdDeviation="3.32733"/>
<feComposite in2="hardAlpha" operator="out"/>
<feColorMatrix type="matrix" values="0 0 0 0 0 0 0 0 0 0 0 0 0 0 0 0 0 0 0.14 0"/>
<feBlend mode="normal" in2="BackgroundImageFix" result="effect1_dropShadow_341_19130"/>
<feColorMatrix in="SourceAlpha" type="matrix" values="0 0 0 0 0 0 0 0 0 0 0 0 0 0 0 0 0 0 127 0" result="hardAlpha"/>
<feOffset/>
<feGaussianBlur stdDeviation="0.831832"/>
<feComposite in2="hardAlpha" operator="out"/>
<feColorMatrix type="matrix" values="0 0 0 0 0 0 0 0 0 0 0 0 0 0 0 0 0 0 0.12 0"/>
<feBlend mode="normal" in2="effect1_dropShadow_341_19130" result="effect2_dropShadow_341_19130"/>
<feBlend mode="normal" in="SourceGraphic" in2="effect2_dropShadow_341_19130" result="shape"/>
</filter>
<filter id="filter1_dd_341_19130" x="24.7026" y="215.782" width="228.595" height="51.6187" filterUnits="userSpaceOnUse" color-interpolation-filters="sRGB">
<feFlood flood-opacity="0" result="BackgroundImageFix"/>
<feColorMatrix in="SourceAlpha" type="matrix" values="0 0 0 0 0 0 0 0 0 0 0 0 0 0 0 0 0 0 127 0" result="hardAlpha"/>
<feOffset dy="1"/>
<feGaussianBlur stdDeviation="1"/>
<feComposite in2="hardAlpha" operator="out"/>
<feColorMatrix type="matrix" values="0 0 0 0 0 0 0 0 0 0 0 0 0 0 0 0 0 0 0.14 0"/>
<feBlend mode="normal" in2="BackgroundImageFix" result="effect1_dropShadow_341_19130"/>
<feColorMatrix in="SourceAlpha" type="matrix" values="0 0 0 0 0 0 0 0 0 0 0 0 0 0 0 0 0 0 127 0" result="hardAlpha"/>
<feOffset/>
<feGaussianBlur stdDeviation="1"/>
<feComposite in2="hardAlpha" operator="out"/>
<feColorMatrix type="matrix" values="0 0 0 0 0 0 0 0 0 0 0 0 0 0 0 0 0 0 0.12 0"/>
<feBlend mode="normal" in2="effect1_dropShadow_341_19130" result="effect2_dropShadow_341_19130"/>
<feBlend mode="normal" in="SourceGraphic" in2="effect2_dropShadow_341_19130" result="shape"/>
</filter>
<clipPath id="clip0_341_19130">
<rect x="10.066" y="15.9266" width="257.868" height="265.111" rx="9.98198" fill="white"/>
</clipPath>
</defs>
</svg>
