<svg width="40" height="40" viewBox="0 0 40 40" fill="none" xmlns="http://www.w3.org/2000/svg">
<rect width="40" height="40" rx="8" fill="#E4EAFC"/>
<path d="M7.87849 32.1217C9.10807 33.3513 10.5678 34.3266 12.1743 34.9921C13.7808 35.6575 15.5027 36 17.2416 36C18.9804 36 20.7023 35.6575 22.3088 34.9921C23.9153 34.3266 25.375 33.3513 26.6046 32.1217C27.8342 30.8921 28.8095 29.4324 29.475 27.8259C30.1404 26.2194 30.4829 24.4975 30.4829 22.7586C30.4829 21.0197 30.1404 19.2979 29.475 17.6914C28.8095 16.0849 27.8342 14.6251 26.6046 13.3956L17.2415 22.7586L7.87849 32.1217Z" fill="url(#paint0_linear_9937_123651)"/>
<path d="M32.1217 7.8783C30.8922 6.64873 29.4325 5.67338 27.8259 5.00794C26.2194 4.3425 24.4976 4 22.7587 4C21.0198 4 19.298 4.3425 17.6914 5.00794C16.0849 5.67338 14.6252 6.64873 13.3956 7.87831C12.1661 9.10788 11.1907 10.5676 10.5253 12.1741C9.85983 13.7806 9.51733 15.5025 9.51733 17.2414C9.51733 18.9803 9.85983 20.7021 10.5253 22.3086C11.1907 23.9151 12.1661 25.3749 13.3956 26.6044L22.7587 17.2414L32.1217 7.8783Z" fill="#1C53E7"/>
<defs>
<linearGradient id="paint0_linear_9937_123651" x1="20.7726" y1="15.2552" x2="28.5506" y2="33.1899" gradientUnits="userSpaceOnUse">
<stop/>
<stop offset="0.0220404" stop-color="#020611"/>
<stop offset="0.1025" stop-color="#0A1B49"/>
<stop offset="0.1833" stop-color="#102D79"/>
<stop offset="0.2628" stop-color="#163BA1"/>
<stop offset="0.3406" stop-color="#1A46BF"/>
<stop offset="0.4164" stop-color="#1D4FD5"/>
<stop offset="0.4892" stop-color="#1E53E3"/>
<stop offset="0.5555" stop-color="#1F55E7"/>
</linearGradient>
</defs>
</svg>
